<svg width="635" height="538" viewBox="0 0 635 538" fill="none" xmlns="http://www.w3.org/2000/svg">
<g clip-path="url(#clip0)">
<path opacity="0.25" d="M585.028 537.356C594.309 537.356 601.804 529.866 601.983 520.592C602.697 474.4 606.445 406.272 519.351 387.367C448.855 372.03 490.617 247.009 300.902 255.035C164.55 260.92 200.78 375.597 94.9466 385.227C24.4506 391.648 23.9151 480.642 26.5922 521.484C27.1276 530.401 34.6234 537.356 43.547 537.356H585.028Z" fill="#B5D0F7"/>
<g opacity="0.5">
<path opacity="0.55" d="M519.351 387.367C448.855 372.03 490.617 247.009 300.902 255.035C268.42 256.462 245.933 263.952 228.8 274.831C234.511 274.118 240.757 273.583 247.182 273.226C437.076 265.2 395.135 390.399 465.631 405.559C551.832 424.285 549.155 491.165 548.263 537.356H585.028C594.309 537.356 601.804 529.866 601.983 520.592C602.697 474.4 606.445 406.272 519.351 387.367Z" fill="#B5D0F7"/>
</g>
<path opacity="0.5" d="M220.59 37.9877H217.556V251.825H220.59V37.9877Z" fill="#1C4577"/>
<path opacity="0.5" d="M435.291 37.9877H432.435V264.309H435.291V37.9877Z" fill="#1C4577"/>
<path d="M435.112 249.684L212.202 223.646C202.743 222.576 193.998 229.353 192.927 238.805L176.329 381.304C175.258 390.756 182.04 399.495 191.499 400.565L414.41 426.604C423.869 427.674 432.614 420.897 433.684 411.444L450.282 268.946C451.532 259.493 444.75 250.754 435.112 249.684Z" fill="#2D68C4"/>
<path d="M448.676 283.035L450.282 268.946C451.353 259.493 444.571 250.754 435.112 249.684L212.202 223.646C202.743 222.576 193.998 229.353 192.927 238.805L191.321 252.895L448.676 283.035Z" fill="#16335E"/>
<path d="M227.372 339.214L255.57 289.456C257.355 286.245 260.924 284.462 264.494 284.819C269.491 285.354 273.06 289.991 272.525 294.984L266.636 345.278H266.814C270.205 345.635 272.704 348.845 272.347 352.233C271.99 355.622 268.777 358.119 265.386 357.762H265.208L264.137 366.858C263.78 370.603 260.389 373.278 256.641 372.922C252.893 372.565 250.216 369.176 250.573 365.431L251.644 356.335L231.298 354.017C227.907 353.66 225.409 350.45 225.766 347.061L226.301 342.424C226.48 341.176 226.836 340.284 227.372 339.214ZM253.429 342.959L256.998 311.749C256.998 311.571 256.82 311.392 256.641 311.57L239.865 340.998C239.508 341.533 239.865 342.246 240.579 342.246L252.358 343.673C252.893 343.673 253.25 343.494 253.429 342.959Z" fill="white"/>
<path d="M352.123 353.839L380.322 304.08C382.106 300.87 385.676 299.086 389.245 299.443C394.242 299.978 397.812 304.615 397.276 309.609L391.387 359.902H391.565C394.956 360.259 397.455 363.469 397.098 366.858C396.741 370.246 393.528 372.743 390.138 372.387H389.959L388.888 381.482C388.531 385.227 385.14 387.903 381.392 387.546C377.645 387.189 374.967 383.801 375.324 380.055L376.395 370.96L356.049 368.641C352.659 368.285 350.16 365.074 350.517 361.686L351.052 357.049C351.231 355.8 351.588 354.73 352.123 353.839ZM378.001 357.584L381.571 326.373C381.571 326.195 381.392 326.017 381.214 326.195L364.438 355.622C364.081 356.157 364.438 356.87 365.152 356.87L376.931 358.297C377.645 358.297 378.001 357.94 378.001 357.584Z" fill="white"/>
<path d="M296.083 309.965C297.69 295.876 306.078 288.742 319.641 290.347C333.205 291.952 339.63 300.87 338.024 314.959L332.67 360.616C331.064 374.705 322.675 381.839 309.112 380.234C295.548 378.629 289.123 369.711 290.729 355.622L296.083 309.965ZM304.471 358.119C303.758 364.361 306.256 367.036 310.539 367.571C315.001 368.106 318.035 365.966 318.749 359.724L324.282 312.284C324.996 306.042 322.497 303.367 318.214 302.832C313.752 302.297 310.718 304.437 310.004 310.679L304.471 358.119Z" fill="white"/>
<path opacity="0.5" d="M217.735 243.442C217.378 245.939 215.058 247.901 212.559 247.544C210.06 247.188 208.097 244.869 208.454 242.372C208.811 239.875 211.131 237.914 213.63 238.27C216.128 238.627 217.913 240.767 217.735 243.442Z" fill="#B5D0F7"/>
<path opacity="0.25" d="M240.043 245.939C239.687 248.436 237.366 250.398 234.868 250.041C232.369 249.684 230.406 247.366 230.763 244.869C231.12 242.372 233.44 240.41 235.939 240.767C238.437 241.124 240.222 243.442 240.043 245.939Z" fill="#B5D0F7"/>
<path d="M173.474 410.909C173.474 410.909 170.44 424.285 170.975 437.839C171.511 449.967 169.905 530.223 169.905 530.223H179.72C179.72 530.223 193.641 467.445 194.177 462.451C194.712 457.457 201.672 407.877 201.672 407.877L173.474 410.909Z" fill="#0A192B"/>
<path d="M180.077 407.164C180.077 407.164 182.398 424.285 186.145 436.413C190.072 448.54 208.811 530.223 208.811 530.223H218.627C218.627 530.223 216.842 467.445 216.129 462.451C215.415 457.457 210.417 407.877 210.417 407.877L180.077 407.164Z" fill="#102544"/>
<path d="M209.703 530.401V537.178H228.443C229.514 537.178 229.871 535.751 228.978 535.216C226.301 533.433 221.839 530.936 217.735 530.401H209.703Z" fill="#0A192B"/>
<path d="M170.44 530.401V537.178H189.179C190.25 537.178 190.607 535.751 189.715 535.216C187.038 533.433 182.576 530.936 178.471 530.401H170.44Z" fill="#0A192B"/>
<path d="M204.171 327.443C204.171 327.443 210.596 317.634 203.278 316.743C197.567 316.029 195.247 317.634 195.247 317.634C195.247 317.634 188.644 316.921 185.074 319.953C182.576 322.093 173.652 338.501 188.108 344.386C202.565 350.272 199.531 335.112 199.531 335.112L204.171 327.443Z" fill="#212121"/>
<path d="M203.278 316.743C197.567 316.029 195.247 317.634 195.247 317.634C195.247 317.634 188.644 316.921 185.074 319.953C182.576 322.093 173.652 338.501 188.108 344.386C194.89 347.24 197.924 345.278 198.995 342.603C185.253 346.526 183.647 329.94 185.967 325.125C188.287 320.309 193.819 322.628 193.819 322.628C195.961 317.099 203.1 317.813 205.956 318.169C205.599 317.456 204.706 316.921 203.278 316.743Z" fill="#212121"/>
<path d="M195.247 332.259C195.247 332.259 193.284 330.297 191.856 332.259C190.429 334.22 191.321 338.501 193.819 338.679C193.819 338.679 193.106 344.921 188.287 344.565V349.558H199.531V345.813C199.531 345.813 206.491 342.959 206.134 337.252C205.955 331.545 204.171 327.443 204.171 327.443C204.171 327.443 200.423 331.724 195.247 332.259Z" fill="#EB8175"/>
<path d="M196.853 347.418C197.924 347.953 197.746 348.488 197.746 349.558H199.352V345.813C199.352 345.813 196.675 346.705 192.749 344.386C192.749 344.386 195.069 346.705 196.853 347.418Z" fill="#E16C5F"/>
<path d="M199.174 323.163C199.174 323.163 193.463 320.844 192.749 322.628C192.392 323.698 193.463 324.768 195.069 325.66L193.641 325.838C193.284 325.838 193.284 326.195 193.463 326.552C193.82 326.908 194.89 327.087 197.032 327.087L199.174 323.163Z" fill="#EB8175"/>
<path d="M240.579 337.609C229.514 329.405 199.352 322.806 199.352 322.806L196.854 327.265C196.854 327.265 224.338 337.787 222.375 339.392C221.304 340.284 207.919 346.526 203.457 348.488C202.565 348.845 201.494 349.202 200.423 349.202H186.502C186.502 349.202 176.508 347.953 168.655 357.049C161.695 365.074 149.737 383.801 149.737 383.801L169.905 413.406L172.225 416.616V416.973C172.225 416.973 172.939 416.973 174.188 417.151C180.613 417.686 201.494 419.47 212.381 417.151H212.738L212.202 368.641C229.692 354.73 238.08 344.029 241.114 340.641C241.65 339.749 241.471 338.322 240.579 337.609ZM172.939 403.954L170.975 399.673L164.729 385.941L175.08 374.348L173.295 399.852L172.939 403.954Z" fill="#B5D0F7"/>
<path d="M170.975 399.673L172.939 403.954L172.046 416.795L171.868 416.973L169.726 413.584L170.975 399.673Z" fill="#EB8175"/>
<path opacity="0.29" d="M207.205 366.858C205.42 368.285 205.777 380.234 205.42 387.724C204.706 400.387 203.814 411.266 204.528 418.221C207.383 418.043 210.06 417.686 212.202 417.33H212.559L212.024 368.82C229.514 354.909 237.902 344.208 240.936 340.819C241.65 339.928 241.65 338.501 240.579 337.787C240.579 337.609 226.658 352.768 207.205 366.858Z" fill="#A2BADD"/>
<path d="M216.128 462.451C215.593 458.884 212.916 431.954 211.488 417.33L204.349 418.043C204.349 418.043 214.701 502.579 215.236 530.223H218.449C218.627 530.401 216.842 467.445 216.128 462.451Z" fill="#102544"/>
<path d="M170.975 333.685L168.834 329.94C169.904 327.978 170.44 325.66 170.44 323.163C170.44 315.137 164.015 308.717 155.984 308.717C147.953 308.717 141.528 315.137 141.528 323.163C141.528 331.189 147.953 337.609 155.984 337.609C159.91 337.609 163.658 336.004 166.157 333.329L170.975 333.685Z" fill="#1C4577"/>
<path d="M148.667 321.737H149.202V323.699C149.202 324.234 149.38 324.59 149.737 324.59C150.094 324.59 150.273 324.412 150.63 324.055V321.737H151.165V324.947H150.63V324.412C150.273 324.769 149.916 324.947 149.559 324.947C148.845 324.947 148.488 324.412 148.488 323.699V321.737H148.667Z" fill="white"/>
<path d="M153.664 325.303V326.373H153.128V321.736H153.485V322.093C153.842 321.915 154.199 321.558 154.556 321.558C155.448 321.558 155.805 322.271 155.805 323.163C155.805 324.233 155.091 324.946 154.377 324.946C154.021 324.946 153.842 324.768 153.485 324.59L153.664 325.303ZM154.377 324.768C154.913 324.768 155.27 324.233 155.27 323.52C155.27 322.806 155.091 322.271 154.377 322.271C154.021 322.271 153.842 322.45 153.485 322.628V324.411C153.842 324.59 154.199 324.768 154.377 324.768Z" fill="white"/>
<path d="M157.412 324.411C157.769 324.59 157.947 324.768 158.304 324.768C158.661 324.768 159.018 324.59 159.018 324.233C159.018 323.876 158.661 323.698 158.304 323.698C157.769 323.52 157.412 323.341 157.412 322.806C157.412 322.271 157.769 321.915 158.482 321.915C158.839 321.915 159.196 322.093 159.553 322.271L159.375 322.628C159.196 322.45 158.839 322.271 158.661 322.271C158.304 322.271 158.126 322.45 158.126 322.806C158.126 323.163 158.482 323.163 158.839 323.341C159.375 323.52 159.91 323.698 159.91 324.411C159.91 324.946 159.553 325.303 158.661 325.303C158.126 325.303 157.769 325.125 157.412 324.768V324.411Z" fill="white"/>
<path d="M161.338 324.233C161.517 324.233 161.695 324.411 161.695 324.59C161.695 324.768 161.517 324.946 161.338 324.946C161.16 324.946 160.981 324.768 160.981 324.59C160.803 324.411 160.981 324.233 161.338 324.233Z" fill="white"/>
<path d="M163.658 324.233C163.837 324.233 164.015 324.411 164.015 324.59C164.015 324.768 163.837 324.946 163.658 324.946C163.48 324.946 163.301 324.768 163.301 324.59C163.123 324.411 163.48 324.233 163.658 324.233Z" fill="white"/>
<path d="M97.9805 506.503C97.9805 506.503 94.9465 503.649 96.9097 492.948C98.8729 482.248 104.049 471.904 101.55 460.311C99.0513 448.719 79.2411 419.47 79.2411 417.508C79.2411 415.546 73.173 451.572 83.3459 465.84C93.5187 480.107 94.768 484.923 94.4111 492.413C93.8757 499.904 94.5896 505.968 95.6604 507.573L97.9805 506.503Z" fill="#FFB500"/>
<path d="M96.0175 485.101C94.7682 489.917 94.0543 501.866 96.0175 504.719C96.196 504.898 96.3744 504.898 96.7314 504.363C96.196 502.401 95.839 498.834 96.9098 493.127C98.873 482.426 104.049 472.082 101.55 460.489C99.0515 448.897 79.2412 419.648 79.2412 417.686C79.2412 417.686 82.2752 442.12 92.2696 458.884C99.4084 470.833 97.2668 480.286 96.0175 485.101Z" fill="#E59E00"/>
<path d="M101.55 505.789C101.55 505.789 95.6605 491.343 105.655 478.681C115.471 466.196 131.355 449.967 131.533 443.547C131.533 443.547 135.638 473.865 122.788 482.426C109.938 490.987 101.015 492.413 103.156 505.611L101.55 505.789Z" fill="#FFB500"/>
<path d="M115.471 476.541C101.193 486.885 99.9439 499.012 102.264 504.541C102.442 504.898 102.799 505.254 103.156 505.433C101.193 492.592 110.117 491.165 122.788 482.783C135.638 474.222 131.533 443.903 131.533 443.903C131.533 443.903 129.749 466.018 115.471 476.541Z" fill="#E59E00"/>
<path d="M91.9125 506.146C91.9125 506.146 93.6973 498.477 92.8049 490.095C91.7341 481.713 83.1675 477.076 74.9578 468.337C70.853 463.878 69.6037 439.98 72.1023 437.839C72.1023 437.839 57.8246 455.139 59.9662 467.802C62.1079 480.464 85.4876 488.668 87.6292 494.91C89.7709 500.974 89.5924 506.146 89.5924 506.146H91.9125Z" fill="#FFB500"/>
<path d="M67.4621 444.617C62.8219 457.458 67.6406 472.974 83.3461 482.604C94.9467 489.738 91.1988 504.362 91.1988 504.362L93.162 498.477C93.3404 495.98 93.3404 492.948 92.9835 490.095C91.9127 481.713 83.3461 477.076 75.1364 468.337C71.0316 464.056 69.7823 441.585 72.1024 438.018C71.3885 439.088 69.4253 441.406 67.4621 444.617Z" fill="#E59E00"/>
<path d="M89.771 438.196C89.9495 438.018 89.9495 437.839 89.9495 437.839C89.9495 438.018 89.9495 438.018 89.771 438.196Z" fill="#49B4D6"/>
<path d="M104.584 505.254C104.584 505.254 107.975 492.77 116.185 491.165C124.394 489.56 134.032 477.254 134.567 474.757C134.567 474.757 133.139 497.764 104.584 505.254Z" fill="#FFB500"/>
<path d="M115.649 495.267C110.652 497.764 108.51 501.152 107.618 504.362C133.139 496.159 134.389 474.935 134.389 474.935C134.21 475.47 133.853 476.362 133.139 477.432C130.819 481.534 124.751 490.63 115.649 495.267Z" fill="#E59E00"/>
<path d="M122.431 500.617H79.0625L84.2382 533.076C84.5951 535.573 86.7368 537.357 89.2354 537.357H112.437C114.935 537.357 117.077 535.573 117.434 533.076L122.431 500.617Z" fill="#2D68C4"/>
<path d="M111.901 500.617L106.726 533.076C106.369 535.573 104.227 537.357 101.729 537.357H112.437C114.935 537.357 117.077 535.573 117.434 533.076L122.61 500.617H111.901Z" fill="#224F91"/>
<path d="M457.421 442.833H261.281V482.604H457.421V442.833Z" fill="#FFB500"/>
<path d="M299.474 482.783H285.732V537.178H299.474V482.783Z" fill="#1C4577"/>
<path d="M434.041 482.783H420.299V537.178H434.041V482.783Z" fill="#1C4577"/>
<path d="M296.262 442.833L276.452 482.783H261.281V477.254L278.415 442.833H296.262Z" fill="white"/>
<path d="M318.749 442.833L298.939 482.783H316.786L336.596 442.833H318.749Z" fill="white"/>
<path d="M376.931 442.833L357.12 482.783H339.273L359.083 442.833H376.931Z" fill="white"/>
<path d="M417.265 442.833L397.455 482.783H379.608L399.418 442.833H417.265Z" fill="white"/>
<path d="M439.574 442.833L419.942 482.426H437.789L457.421 442.833H439.574Z" fill="white"/>
<path d="M549.512 532.898H487.047L496.685 509.713L500.611 500.439L501.682 497.942L503.467 493.84L503.824 492.948L507.75 483.674L508.464 481.891L515.246 465.305C516.495 462.273 520.778 462.273 521.849 465.305L528.631 481.891L529.345 483.674L533.271 492.948L533.628 493.84L535.413 497.942L536.484 500.439L540.41 509.713L549.512 532.898Z" fill="#FFB500"/>
<path d="M553.617 527.013H482.05V537.178H553.617V527.013Z" fill="#E59E00"/>
<path d="M532.915 492.948H503.645L507.393 483.496H529.167L532.915 492.948Z" fill="white"/>
<path d="M540.053 509.713V509.891H496.685V509.713L500.433 500.439H536.127L540.053 509.713Z" fill="white"/>
<path opacity="0.5" d="M81.9182 284.64C86.5584 284.64 90.6632 281.252 91.1987 276.615C91.3771 275.723 91.3771 275.01 91.3771 274.118C91.3771 263.774 82.989 255.57 72.8161 255.57C72.4592 255.57 71.9238 255.57 71.5668 255.57C70.6745 245.404 62.2864 237.379 51.935 237.379C41.0483 237.379 32.1247 246.296 32.1247 257.175C32.1247 257.71 32.1247 258.067 32.1247 258.602C29.0907 256.818 25.3428 255.927 21.5949 256.105C11.6006 256.64 3.56937 264.487 2.85548 274.475V274.653C2.49854 280.003 6.96032 284.64 12.3144 284.64H81.9182Z" fill="#B5D0F7"/>
<path opacity="0.75" d="M596.272 320.666C611.085 320.666 611.799 298.551 597.164 297.838C596.807 297.838 596.272 297.838 595.915 297.838C593.238 297.838 590.739 298.195 588.419 299.086C586.456 287.137 576.104 277.863 563.433 277.863C550.583 277.863 540.053 287.494 538.447 299.8C535.413 298.373 532.022 297.481 528.453 297.481C526.489 297.481 524.526 297.659 522.563 298.195C509.713 301.583 512.39 320.666 525.776 320.666H596.272Z" fill="#B5D0F7"/>
<path opacity="0.25" d="M383.534 193.684C398.347 193.684 399.061 171.569 384.427 170.855C384.07 170.855 383.534 170.855 383.177 170.855C380.5 170.855 378.002 171.212 375.682 172.104C373.718 160.155 363.367 150.881 350.696 150.881C337.846 150.881 327.316 160.511 325.71 172.817C322.676 171.391 319.285 170.499 315.715 170.499C313.752 170.499 311.789 170.677 309.826 171.212C296.976 174.601 299.653 193.684 313.038 193.684H383.534Z" fill="#B5D0F7"/>
<path d="M131.176 216.869C150.692 216.869 166.513 201.059 166.513 181.556C166.513 162.054 150.692 146.244 131.176 146.244C111.66 146.244 95.8389 162.054 95.8389 181.556C95.8389 201.059 111.66 216.869 131.176 216.869Z" fill="#FFB500"/>
<path opacity="0.5" d="M131.533 146.244C141.171 152.486 147.417 163.365 147.417 175.671C147.417 195.111 131.533 210.983 112.08 210.983C111.901 210.983 111.901 210.983 111.723 210.983C117.256 214.55 123.859 216.69 131.176 216.69C150.63 216.69 166.514 200.818 166.514 181.378C166.514 162.117 150.808 146.422 131.533 146.244Z" fill="#D88A00"/>
<path d="M0 537.535H635" stroke="#224F91" stroke-width="1.156" stroke-miterlimit="10" stroke-linecap="round" stroke-linejoin="round"/>
</g>
<defs>
<clipPath id="clip0">
<rect width="635" height="537.535" fill="white"/>
</clipPath>
</defs>
</svg>
