<svg width="635" height="418" viewBox="0 0 635 418" fill="none" xmlns="http://www.w3.org/2000/svg">
<path d="M45.6501 416.455C45.6501 416.455 -33.4005 339.717 16.8862 249.453C67.1728 159.188 134.733 204.572 131.464 99.498C128.196 -5.57597 286.825 -14.6024 337.313 15.8713C387.801 46.345 387.499 83.0291 491.743 70.8849C595.987 58.7407 615.901 159.943 588.771 211.537C550.302 284.729 695.555 272.66 604.033 416.48H45.6501V416.455Z" fill="#E7EFFA"/>
<path opacity="0.3" d="M392.829 235.901C392.829 235.901 409.625 164.695 466.298 156.876C466.298 156.876 477.336 155.518 481.007 167.662C484.678 179.807 462.753 179.882 449.201 184.785C435.623 189.663 404.043 210.356 392.829 235.901Z" fill="#B4D0F6"/>
<path opacity="0.3" d="M391.547 222.575C391.547 222.575 385.664 163.589 426.999 142.67C426.999 142.67 435.095 138.722 441.105 147.07C447.114 155.392 430.343 161.251 421.241 168.568C412.14 175.859 393.408 200.047 391.547 222.575Z" fill="#B4D0F6"/>
<path d="M629.168 417.21H23.2719C22.8968 417.21 22.5687 416.883 22.5687 416.456V416.179C22.5687 415.777 22.8734 415.425 23.2719 415.425H629.168C629.543 415.425 629.871 415.752 629.871 416.179V416.456C629.871 416.858 629.543 417.21 629.168 417.21Z" fill="#224F91"/>
<path d="M85.7792 362.9C77.0293 342.962 108.76 325.839 108.76 325.839C108.76 325.839 150.574 339.366 156.583 335.67C162.592 331.949 123.092 317.114 123.092 317.114C132.847 307.585 170.21 298.835 170.21 298.835C170.21 298.835 195.429 333.608 200.332 328.555C205.235 323.476 176.446 298.885 176.446 298.885C189.143 293.706 208.303 297.955 208.303 297.955C235.885 307.786 221.855 342.685 221.855 342.685C221.855 342.685 230.856 354.553 248.708 362.071C248.708 362.071 252.303 363.227 257.307 366.068L254.516 368.306C253.686 367.753 252.857 367.225 252.027 366.747C252.027 366.747 252.027 366.747 252.002 366.747L251.977 366.722C251.449 366.446 250.669 366.043 249.739 365.591C247.551 364.61 245.967 363.831 244.886 363.252C238.123 360.084 228.945 356.212 225.35 356.765C225.35 356.765 225.3 356.087 224.922 355.005C225.048 355.559 225.199 356.162 225.35 356.765C228.82 370.846 206.316 391.765 190.828 399.761C175.34 407.731 178.105 399.333 180.368 387.465C182.631 375.623 198.924 365.138 201.439 359.179C203.953 353.22 195.555 356.061 187.233 363.881C178.91 371.701 181.626 384.147 168.4 397.045C155.175 409.944 122.564 391.79 122.564 391.79C134.934 386.887 148.26 367.15 146.199 363.202C144.137 359.255 118.164 380.727 113.236 382.99C108.282 385.253 94.529 382.839 85.7792 362.9Z" fill="#CCDDF7"/>
<path d="M485.332 386.887C498.105 371.826 474.948 348.719 474.948 348.719C474.948 348.719 435.095 349.65 430.846 344.873C426.597 340.095 464.765 337.43 464.765 337.43C458.755 326.618 428.558 309.345 428.558 309.345C428.558 309.345 397.657 333.055 394.69 327.373C391.748 321.69 423.127 307.786 423.127 307.786C413.422 300.017 395.671 298.735 395.671 298.735C369.144 300.117 372.313 334.111 372.313 334.111C372.313 334.111 361.425 342.107 343.951 344.018C343.951 344.018 340.531 344.093 335.452 345.275L337.288 347.94C338.143 347.663 339.023 347.437 339.852 347.236C339.852 347.236 339.852 347.236 339.878 347.236H339.903C340.431 347.135 341.21 346.985 342.166 346.834C344.328 346.557 345.887 346.281 346.993 346.054C353.706 345.049 362.657 344.068 365.65 345.476C365.65 345.476 365.851 344.898 366.479 344.068C366.203 344.521 365.926 344.998 365.65 345.476C358.987 356.816 373.117 380.828 384.532 391.765C395.947 402.702 395.696 394.682 396.802 383.794C397.908 372.907 386.468 359.581 385.814 353.748C385.161 347.915 391.748 352.566 396.953 361.517C402.158 370.468 396.576 380.576 404.722 395.21C412.869 409.843 445.907 402.501 445.907 402.501C436.428 395.059 429.966 374.441 432.782 371.55C435.598 368.633 452.62 394.028 456.291 397.296C459.987 400.49 472.559 401.948 485.332 386.887Z" fill="#CCDDF7"/>
<path opacity="0.5" d="M167.797 95.1489C180.947 73.0731 219.164 91.83 219.164 91.83C219.164 91.83 234.829 141.287 242.523 144.505C250.216 147.724 237.393 99.5993 237.393 99.5993C253.234 102.415 287.253 132.336 287.253 132.336C287.253 132.336 271.111 180.41 279.358 181.642C287.605 182.874 291.477 138.345 291.477 138.345C305.155 146.995 314.206 168.316 314.206 168.316C323.685 201.556 280.514 212.015 280.514 212.015C280.514 212.015 275.284 228.786 280.288 251.138C280.288 251.138 281.646 255.387 282.325 262.151L278.251 261.02C278.226 259.838 278.151 258.681 278.025 257.55V257.525C278.025 257.499 278.025 257.499 278.025 257.474C277.924 256.77 277.774 255.765 277.572 254.533C277.019 251.742 276.667 249.705 276.516 248.272C276.516 248.272 276.516 248.272 276.516 248.247C274.932 239.572 272.343 228.107 269.351 225.014C269.351 225.014 269.979 224.511 270.733 223.38C270.281 223.908 269.828 224.436 269.351 225.014C258.212 237.988 222.685 230.722 204.38 221.318C186.076 211.915 196.083 208.797 209.007 202.838C221.955 196.879 243.176 205.352 250.619 203.668C258.061 201.983 249.588 195.873 236.362 193.233C223.137 190.618 213.055 201.732 191.607 197.885C170.16 194.013 165.232 150.263 165.232 150.263C178.407 158.787 206.517 158.058 208.906 153.356C211.295 148.654 172.85 138.421 167.294 135.278C161.762 132.11 154.647 117.225 167.797 95.1489Z" fill="#CCDDF7"/>
<path d="M314.684 135.554C314.684 134.121 314.935 132.814 315.438 131.607C315.941 130.4 316.67 129.344 317.601 128.464C318.531 127.584 319.637 126.88 320.945 126.377C322.252 125.874 323.736 125.623 325.37 125.623C327.004 125.623 328.488 125.874 329.82 126.377C331.153 126.88 332.284 127.559 333.215 128.464C334.145 129.344 334.874 130.4 335.377 131.607C335.88 132.814 336.131 134.146 336.131 135.554C336.131 136.988 335.88 138.295 335.377 139.477C334.874 140.658 334.145 141.714 333.215 142.594C332.284 143.474 331.153 144.178 329.82 144.681C328.488 145.184 327.004 145.436 325.37 145.436C323.736 145.436 322.252 145.184 320.945 144.681C319.637 144.178 318.531 143.5 317.601 142.594C316.67 141.714 315.941 140.684 315.438 139.477C314.935 138.295 314.684 136.988 314.684 135.554ZM333.366 117.099H317.425L315.162 62.6135H335.628L333.366 117.099Z" fill="#224F92"/>
<path d="M266.56 82.3008C266.56 81.1945 266.761 80.1887 267.138 79.2584C267.54 78.3281 268.094 77.5236 268.798 76.8447C269.502 76.1658 270.382 75.6378 271.362 75.2607C272.368 74.8835 273.499 74.6824 274.757 74.6824C276.014 74.6824 277.145 74.8835 278.176 75.2607C279.207 75.6378 280.062 76.1658 280.766 76.8447C281.47 77.5236 282.023 78.3281 282.425 79.2584C282.828 80.1887 283.004 81.1945 283.004 82.3008C283.004 83.4071 282.802 84.3877 282.425 85.318C282.023 86.2231 281.47 87.0277 280.766 87.7066C280.062 88.3855 279.182 88.9135 278.176 89.2906C277.145 89.6678 276.014 89.8689 274.757 89.8689C273.499 89.8689 272.368 89.6678 271.362 89.2906C270.356 88.9135 269.502 88.3855 268.798 87.7066C268.094 87.0277 267.54 86.2231 267.138 85.318C266.761 84.4128 266.56 83.4071 266.56 82.3008ZM280.891 68.1451H268.647L266.912 26.3317H282.626L280.891 68.1451Z" fill="#B4D0F6"/>
<path d="M504.265 152.954C504.265 151.847 504.466 150.841 504.843 149.911C505.245 148.981 505.798 148.176 506.503 147.497C507.207 146.819 508.087 146.291 509.067 145.913C510.073 145.536 511.204 145.335 512.461 145.335C513.719 145.335 514.85 145.536 515.881 145.913C516.912 146.291 517.767 146.819 518.471 147.497C519.175 148.176 519.728 148.981 520.13 149.911C520.532 150.841 520.708 151.847 520.708 152.954C520.708 154.06 520.507 155.04 520.13 155.971C519.728 156.876 519.175 157.68 518.471 158.359C517.767 159.038 516.887 159.566 515.881 159.943C514.85 160.321 513.719 160.522 512.461 160.522C511.204 160.522 510.073 160.321 509.067 159.943C508.061 159.566 507.207 159.038 506.503 158.359C505.798 157.68 505.245 156.876 504.843 155.971C504.441 155.04 504.265 154.035 504.265 152.954ZM518.571 138.798H506.327L504.592 96.9845H520.306L518.571 138.798Z" fill="#B4D0F6"/>
<path d="M477.336 259.36C474.772 264.112 471.604 268.889 468.335 272.787C464.915 276.86 461.421 279.978 458.454 281.034H458.428C458.278 281.084 458.127 281.134 457.976 281.185H457.951C457.347 281.361 456.769 281.436 456.241 281.411C446.536 280.983 436.327 260.19 436.327 260.19C436.327 260.19 436.604 257.726 438.49 255.991C440.124 254.482 441.406 254.08 441.406 254.08C441.406 254.08 451.841 264.791 454.406 265.571C456.015 266.048 458.127 258.556 461.144 249.152C464.161 239.748 474.797 237.435 474.797 237.435C474.797 237.435 485.508 244.224 477.336 259.36Z" fill="#B4D0F6"/>
<path d="M468.335 272.787C464.915 276.86 461.42 279.978 458.454 281.034H458.428L457.976 281.185H457.951C458.051 281.109 461.219 279.475 461.722 276.432C462.225 273.315 458.931 270.775 467.203 265.973C472.031 263.157 468.335 272.787 468.335 272.787Z" fill="#A1BADD"/>
<path d="M460.767 415.425H483.496C485.131 414.319 483.069 403.532 483.069 403.532C483.069 403.532 476.858 401.169 475.802 405.971C474.721 410.748 467.907 412.282 464.287 412.86C461.798 413.237 461.018 414.595 460.767 415.425Z" fill="#24406D"/>
<path d="M495.414 303.537C495.414 303.537 494.71 316.787 493.805 332.15C493.151 343.163 492.422 355.257 491.794 364.308C491.718 365.515 491.618 366.672 491.542 367.753C491.517 368.08 491.492 368.432 491.467 368.759C489.832 389.075 484.402 406.876 484.402 406.876C478.015 408.234 475.124 405.77 475.124 405.77C475.124 405.77 470.723 354.176 469.089 333.382C467.882 318.07 466.877 295.768 466.877 295.768L495.414 303.537Z" fill="#102544"/>
<path d="M493.805 332.15C493.151 343.163 492.422 355.257 491.794 364.308C487.62 354.452 479.096 316.058 479.096 316.058L493.805 332.15Z" fill="#0A192B"/>
<path d="M494.459 415.425H517.188C518.823 414.319 516.761 403.532 516.761 403.532C516.761 403.532 510.551 401.169 509.494 405.971C508.413 410.748 501.6 412.282 497.979 412.86C495.49 413.237 494.71 414.595 494.459 415.425Z" fill="#24406D"/>
<path d="M473.037 300.897C473.037 300.897 489.254 341.277 494.459 356.589C498.155 367.502 508.564 405.745 508.564 405.745C508.564 405.745 513.09 407.128 516.912 404.462C516.912 404.462 520.784 365.364 512.964 354.352C508.816 348.493 511.934 293.555 495.087 293.103C478.241 292.65 473.037 300.897 473.037 300.897Z" fill="#102544"/>
<path d="M506.276 287.898C506.201 293.63 506.151 297.855 506.151 298.936C506.201 302.405 503.963 303.185 501.675 303.713C501.675 303.713 499.563 304.166 496.898 304.618C494.283 305.046 491.14 305.498 488.902 305.473C477.512 305.372 467.983 302.028 467.983 302.028C465.846 302.028 464.865 298.709 464.513 294.083C464.287 290.94 465.242 259.687 465.368 251.893C465.443 246.286 468.536 241.131 469.391 240.377C477.336 233.337 500.82 234.217 505.044 239.069C506.1 240.276 506.402 251.842 506.427 264.514C506.427 272.686 506.352 281.31 506.276 287.898Z" fill="#B4D0F6"/>
<path d="M492.171 236.304C489.179 239.547 479.096 239.069 479.398 236.228C479.448 235.876 479.499 233.815 479.549 233.488C479.574 233.236 479.599 232.985 479.624 232.733C479.7 232.029 479.75 231.426 479.8 230.873C479.926 229.314 479.976 228.484 479.976 228.484C480.253 228.409 486.74 226.573 489.958 225.794C491.039 225.542 491.743 225.391 491.743 225.492C490.763 232.758 493.151 235.248 492.171 236.304Z" fill="#FFA8A7"/>
<path d="M490.31 227.956C490.31 227.956 487.595 230.697 479.8 230.898C479.926 229.339 479.976 228.509 479.976 228.509C480.253 228.434 486.74 226.598 489.958 225.819C490.536 226.045 489.782 227.554 490.31 227.956Z" fill="#EB9F00"/>
<path d="M477.99 228.107C477.99 228.107 479.976 228.811 482.491 229.163C486.187 229.666 491.014 229.364 492.548 224.914C495.113 217.421 498.381 212.92 490.838 209.853C486.79 208.219 484.225 208.118 482.465 208.747C480.932 209.275 480.052 210.356 479.373 211.437C477.889 213.725 474.948 226.799 477.99 228.107Z" fill="#FFA8A7"/>
<path d="M479.926 205.604C477.236 207.364 478.116 211.512 481.284 212.091C483.195 212.418 484.779 212.493 485.709 212.895C487.595 213.725 489.204 214.605 488.751 217.522C488.6 218.502 488.123 219.709 490.662 219.131C491.09 219.03 491.391 219.055 491.592 219.181C492.648 219.81 491.291 222.852 490.888 223.506C490.888 223.506 490.31 225.693 491.592 226.749C491.743 226.875 494.308 227.981 500.468 218.578C501.449 217.094 502.354 213.775 500.87 210.557C499.387 207.339 495.213 203.291 487.368 203.291C485.332 203.265 482.239 204.07 479.926 205.604Z" fill="#212121"/>
<path d="M506.276 287.898C505.12 293.228 505.421 293.278 503.661 291.896C496.495 286.188 498.582 283.221 500.192 278.293C501.801 273.365 496.194 265.646 500.192 262.352C504.089 259.134 506.327 264.313 506.427 264.54C506.427 272.686 506.352 281.31 506.276 287.898Z" fill="#A1BADD"/>
<path d="M506.1 287.219C506.1 287.219 503.41 291.644 501.625 291.468C499.84 291.292 497.476 290.664 496.093 291.971C494.71 293.279 492.498 296.673 493.101 297.578C493.73 298.483 496.219 297.679 498.004 296.698C499.789 295.717 502.63 297.176 504.139 296.069C505.648 294.938 509.243 290.488 509.243 290.488L506.1 287.219Z" fill="#FFA8A7"/>
<path d="M505.019 239.095C505.019 239.095 527.447 260.19 524.53 274.22C523.198 280.606 519.099 286.012 508.112 294.737C508.112 294.737 502.932 291.141 501.776 288.25C501.776 288.25 511.732 274.22 511.355 271.831C510.877 268.915 504.089 261.573 501.65 260.441C499.211 259.31 499.437 241.533 505.019 239.095Z" fill="#B4D0F6"/>
<path d="M501.625 291.493C501.625 291.493 499.261 290.462 498.507 290.01C497.753 289.557 497.929 290.286 498.155 290.638C498.381 290.99 499.01 291.795 499.94 291.87C500.87 291.971 501.625 291.493 501.625 291.493Z" fill="#FFA8A7"/>
<path d="M107.478 245.657C106.673 244.098 125.154 238.466 125.455 253.879C125.455 253.879 160.103 253.024 143.559 233.714C137.826 227.026 138.429 221.494 138.605 216.365C138.781 211.211 135.035 196.275 122.212 197.784C122.212 197.784 118.843 196.426 114.669 198.589C105.114 203.517 83.7677 251.339 107.478 245.657Z" fill="#212121"/>
<path d="M164.101 259.813C164.101 259.813 166.363 256.368 168.174 256.318C169.984 256.242 173.353 255.312 173.077 255.991C172.8 256.67 170.713 256.72 170.512 257.148C170.311 257.55 173.605 258.153 174.56 258.229C175.491 258.304 177.728 258.229 177.653 258.706C177.577 259.184 173.655 261.12 170.864 260.869C168.098 260.592 164.654 261.673 164.654 261.673L164.101 259.813Z" fill="#FFA8A7"/>
<path d="M131.49 260.919C131.49 260.919 132.722 263.358 134.934 266.124C137.625 269.468 141.748 273.365 146.928 274.119C149.417 274.496 151.831 273.943 154.043 272.963C160.354 270.172 165.081 263.735 165.081 263.735C166.187 260.718 164.377 258.656 164.377 258.656C164.377 258.656 151.655 261.522 150.448 260.919C149.241 260.316 141.798 243.796 140.441 241.031C137.599 235.172 133.074 233.513 133.074 233.513L131.49 260.919Z" fill="#B4D0F6"/>
<path d="M134.959 266.124C137.65 269.468 141.773 273.365 146.953 274.119C149.442 274.496 151.856 273.943 154.068 272.963C153.817 272.988 147.531 273.767 145.017 269.292C142.452 264.716 139.686 257.449 135.89 259.863C134.255 260.919 134.331 263.509 134.959 266.124Z" fill="#A1BADD"/>
<path d="M84.0441 398.227C84.0441 398.227 80.1721 401.772 80.9264 404.286C81.6807 406.801 85.1756 408.485 85.6533 411.553C86.131 414.62 88.0168 416.305 89.7265 416.305C91.4363 416.305 97.8478 416.305 97.8478 416.305C97.8478 416.305 99.105 414.142 96.0626 413.489C93.0454 412.835 91.8889 409.214 92.09 405.87C92.2912 402.526 91.8134 398.051 91.8134 398.051L85.3767 396.567L84.0441 398.227Z" fill="#1D3356"/>
<path d="M116.907 399.735C116.907 399.735 115.499 414.746 117.208 415.576L139.008 415.525C139.008 415.525 139.008 413.011 135.513 412.458C132.018 411.905 125.858 409.843 124.827 405.292C123.771 400.716 116.907 399.735 116.907 399.735Z" fill="#1D3356"/>
<path d="M100.111 250.786C100.111 250.786 99.784 255.362 100.111 260.869C100.337 264.514 104.008 269.392 104.536 270.599C105.844 273.616 107.327 274.119 107.327 274.119L118.767 276.935L122.79 277.916L135.488 274.119C135.488 274.119 141.27 257.977 138.957 248.9C136.644 239.824 133.099 233.513 133.099 233.513C133.099 233.513 124.5 230.118 109.238 232.658L100.111 250.786Z" fill="#B4D0F6"/>
<path d="M103.48 262.352C103.706 265.998 104.033 269.392 104.561 270.599C105.869 273.616 107.352 274.119 107.352 274.119L118.792 276.935L123.771 275.477C123.771 275.477 107.176 272.963 109.012 258.681L103.48 262.352Z" fill="#F2CCAA"/>
<path d="M134.708 276.583C134.708 276.583 140.994 296.145 141.396 302.808C141.798 309.471 129.378 397.472 128.875 400.54C128.397 403.431 124.802 405.267 124.802 405.267C124.802 405.267 123.142 406.247 120.779 405.569C117.51 404.638 116.479 403.532 116.479 403.532C116.479 403.532 111.576 340.774 114.618 318.372C117.636 295.944 117.686 276.558 117.686 276.558H134.708V276.583Z" fill="#16335D"/>
<path d="M108.056 276.005C108.056 276.005 98.4764 288.878 97.5713 297.578C96.6661 306.278 96.1633 336.827 94.2524 345.325C92.3415 353.798 85.3516 370.117 85.3516 396.567C85.3516 396.567 86.0808 398.076 88.3185 398.88C89.0477 399.132 90.0031 399.383 90.9334 399.61C92.7941 400.037 94.6798 399.132 95.5347 397.422C100.262 387.893 115.348 357.168 116.102 350.781C116.655 346.255 121.407 316.385 131.791 298.86C134.281 294.661 130.258 277.916 130.258 277.916L108.056 276.005Z" fill="#204883"/>
<path d="M135.714 273.566C135.714 273.566 133.199 275.552 128.171 275.653C122.187 275.779 107.352 274.119 107.352 274.119C107.352 274.119 106.698 275.955 106.723 277.916C106.723 277.916 124.852 282.492 135.362 278.595C135.337 278.595 136.694 276.03 135.714 273.566Z" fill="#212121"/>
<path d="M126.863 277.715C126.863 276.005 128.095 274.622 129.604 274.622C131.113 274.622 132.345 276.005 132.345 277.715C132.345 279.424 131.113 280.807 129.604 280.807C128.095 280.807 126.863 279.424 126.863 277.715ZM127.769 277.715C127.769 278.922 128.598 279.902 129.604 279.902C130.61 279.902 131.439 278.922 131.439 277.715C131.439 276.508 130.61 275.527 129.604 275.527C128.598 275.527 127.769 276.508 127.769 277.715Z" fill="white"/>
<path d="M89.7517 278.771L104.461 291.594C105.517 292.524 107.126 292.398 108.056 291.342L126.838 269.769C127.768 268.713 127.643 267.104 126.587 266.174L111.878 253.351C110.822 252.421 109.213 252.546 108.282 253.602L89.5003 275.175C88.57 276.231 88.6957 277.84 89.7517 278.771Z" fill="#2D68C4"/>
<path d="M111.526 277.162C111.727 277.212 119.345 278.117 119.345 279.676C119.345 281.486 117.108 283.925 115.021 283.825C114.166 283.774 110.244 280.179 110.244 280.179L111.526 277.162Z" fill="#FFA8A7"/>
<path d="M115.423 231.828C116.278 229.716 116.806 226.523 116.781 222.575L117.359 222.701L127.014 224.612C127.014 224.612 126.788 227.654 126.788 230.521C126.788 230.546 126.788 230.571 126.788 230.596C126.788 233.085 128.472 235.575 124.475 236.58C123.268 236.857 113.613 236.228 115.423 231.828Z" fill="#FFA8A7"/>
<path d="M127.039 224.587C127.039 224.587 126.813 227.629 126.813 230.496C121.407 230.345 118.541 225.417 117.384 222.676L127.039 224.587Z" fill="#E8945B"/>
<path d="M128.85 227.302C128.85 227.302 116.052 227.504 116.052 219.533C116.052 211.563 114.392 206.232 122.564 205.755C130.735 205.277 132.319 208.319 132.973 210.984C133.602 213.65 132.169 227.051 128.85 227.302Z" fill="#FFA8A7"/>
<path d="M128.372 205.553C128.372 205.553 124.877 214.907 119.496 216.29C114.116 217.672 111.777 216.239 111.777 216.239C111.777 216.239 115.901 212.971 116.756 207.238C116.756 207.238 125.732 201.103 128.372 205.553Z" fill="#212121"/>
<path d="M127.492 206.308C127.492 206.308 130.082 207.288 131.163 209.174C132.219 211.035 133.099 213.474 132.898 216.491C132.898 216.491 135.538 210.129 132.571 206.534C129.428 202.737 127.492 206.308 127.492 206.308Z" fill="#212121"/>
<path d="M111.526 277.162C111.526 277.162 113.361 276.583 114.568 276.734C115.775 276.91 116.68 276.709 116.68 277.061C116.68 277.413 115.096 277.564 114.769 277.715C114.443 277.891 111.526 277.162 111.526 277.162Z" fill="#FFA8A7"/>
<path d="M109.263 232.658C109.263 232.658 100.186 233.286 96.6912 241.76C93.2215 250.233 86.6088 264.439 86.6088 266.828C86.6088 269.216 90.3048 276.583 110.118 280.833C110.118 280.833 112.18 278.67 112.054 276.96C112.054 276.96 99.6833 266.325 99.7084 265.093C99.7839 262.754 101.745 259.637 112.607 248.775C115.549 245.808 109.263 232.658 109.263 232.658Z" fill="#B4D0F6"/>
<path d="M363.531 160.522H265.372C263.008 160.522 260.72 161.477 259.036 163.137L189.615 232.557C187.93 234.242 187 236.505 187 238.893V337.053C187 339.416 187.955 341.705 189.615 343.389L259.036 412.81C260.72 414.495 262.983 415.425 265.372 415.425H363.531C365.895 415.425 368.183 414.469 369.867 412.81L439.288 343.389C440.973 341.705 441.903 339.442 441.903 337.053V238.893C441.903 236.53 440.948 234.242 439.288 232.557L369.867 163.137C368.183 161.452 365.895 160.522 363.531 160.522Z" fill="#FFB500"/>
<path d="M356.221 402.652H271.865C268.42 402.652 265.202 401.319 262.763 398.88L203.123 339.241C200.684 336.802 199.351 333.583 199.351 330.139V245.783C199.351 242.338 200.684 239.12 203.123 236.681L262.763 177.041C265.202 174.602 268.42 173.269 271.865 173.269H356.221C359.665 173.269 362.884 174.602 365.323 177.041L424.963 236.681C427.401 239.12 428.734 242.338 428.734 245.783V330.139C428.734 333.583 427.401 336.802 424.963 339.241L365.323 398.88C362.884 401.319 359.665 402.652 356.221 402.652ZM271.865 182.019C270.759 182.019 269.728 182.447 268.948 183.226L209.308 242.866C208.529 243.646 208.101 244.676 208.101 245.783V330.139C208.101 331.245 208.529 332.276 209.308 333.055L268.948 392.695C269.728 393.475 270.759 393.902 271.865 393.902H356.221C357.327 393.902 358.358 393.475 359.137 392.695L418.777 333.055C419.557 332.276 419.984 331.245 419.984 330.139V245.783C419.984 244.676 419.557 243.646 418.777 242.866L359.137 183.226C358.358 182.447 357.327 182.019 356.221 182.019H271.865Z" fill="white"/>
<path d="M349.906 309.511L348.908 308.641C346.382 306.444 342.536 306.724 340.348 309.26L334.681 315.837C333.874 316.781 332.332 316.205 332.332 314.952C332.332 314.436 332.303 313.92 332.244 313.404V272.012C332.244 269.299 330.027 267.073 327.326 267.073H326.959C324.257 267.073 322.04 269.299 322.04 272.012V298.953C322.04 299.602 321.512 300.133 320.866 300.133C320.146 300.133 319.559 299.543 319.559 298.82V266.778C319.559 264.153 317.415 262 314.802 262H314.112C311.499 262 309.355 264.153 309.355 266.778V299.027C309.355 299.631 308.871 300.118 308.269 300.118C307.505 300.118 306.874 299.498 306.874 298.717V273.015C306.874 270.302 304.657 268.075 301.956 268.075H301.589C298.887 268.075 296.67 270.302 296.67 273.015V298.923C296.67 299.572 296.142 300.103 295.496 300.103C294.776 300.103 294.204 299.513 294.204 298.805V278.53C294.204 275.817 291.987 273.59 289.285 273.59H288.918C286.217 273.59 284 275.817 284 278.53V314.126C284 314.229 284 314.318 284.015 314.421C284.015 314.583 284 314.746 284 314.923V334.52C284 342.482 290.489 349 298.417 349H317.929C322.995 349 327.487 346.331 330.056 342.335C330.835 341.126 331.671 339.961 332.611 338.87L350.537 318.078C352.71 315.571 352.431 311.708 349.906 309.511Z" fill="white"/>
<path d="M258.384 371H254.441V355.499H264.99V358.679H258.384V362.202H264.389V365.221H258.384V371ZM268.363 357.39C269.745 355.95 271.611 355.23 273.96 355.23C276.309 355.23 278.171 355.95 279.546 357.39C280.921 358.829 281.608 360.784 281.608 363.255C281.608 365.726 280.921 367.681 279.546 369.12C278.171 370.552 276.309 371.269 273.96 371.269C271.604 371.269 269.738 370.552 268.363 369.12C266.988 367.681 266.301 365.726 266.301 363.255C266.301 360.784 266.988 358.829 268.363 357.39ZM276.603 359.742C275.944 358.868 275.063 358.432 273.96 358.432C272.857 358.432 271.973 358.868 271.307 359.742C270.648 360.609 270.318 361.78 270.318 363.255C270.318 364.723 270.648 365.894 271.307 366.768C271.965 367.634 272.85 368.067 273.96 368.067C275.063 368.067 275.944 367.634 276.603 366.768C277.269 365.894 277.602 364.723 277.602 363.255C277.602 361.78 277.269 360.609 276.603 359.742ZM287.474 358.475V362.879H289.783C290.507 362.879 291.072 362.682 291.48 362.288C291.889 361.894 292.093 361.361 292.093 360.688C292.093 360.021 291.882 359.488 291.459 359.087C291.036 358.679 290.474 358.475 289.772 358.475H287.474ZM287.474 365.575V371H283.531V355.499H290.17C292.089 355.499 293.561 355.947 294.585 356.842C295.609 357.737 296.121 358.994 296.121 360.612C296.121 361.586 295.885 362.471 295.412 363.266C294.947 364.053 294.299 364.63 293.468 364.995L296.572 371H292.146L289.482 365.575H287.474ZM305.499 371H298.098V355.499H305.306C306.831 355.499 308.027 355.843 308.894 356.53C309.76 357.218 310.193 358.163 310.193 359.366C310.193 360.226 309.903 360.97 309.323 361.601C308.75 362.231 308.031 362.607 307.164 362.729V362.814C308.224 362.865 309.112 363.241 309.828 363.942C310.551 364.644 310.913 365.507 310.913 366.531C310.913 367.892 310.423 368.977 309.441 369.786C308.467 370.595 307.153 371 305.499 371ZM302.04 358.292V361.815H304.07C304.786 361.815 305.345 361.658 305.746 361.343C306.154 361.021 306.358 360.58 306.358 360.021C306.358 359.477 306.172 359.055 305.8 358.754C305.435 358.446 304.923 358.292 304.264 358.292H302.04ZM302.04 368.207H304.382C305.198 368.207 305.821 368.035 306.251 367.691C306.688 367.34 306.906 366.839 306.906 366.188C306.906 365.557 306.684 365.07 306.24 364.727C305.796 364.383 305.17 364.211 304.36 364.211H302.04V368.207ZM316.521 371H312.578V355.499H316.521V371ZM318.873 355.499H325.168C327.524 355.499 329.35 356.161 330.646 357.486C331.95 358.811 332.602 360.702 332.602 363.158C332.602 365.629 331.946 367.555 330.636 368.938C329.332 370.312 327.51 371 325.168 371H318.873V355.499ZM322.815 358.679V367.82H324.652C325.941 367.82 326.919 367.43 327.585 366.649C328.258 365.869 328.595 364.709 328.595 363.169C328.595 361.722 328.251 360.612 327.563 359.839C326.876 359.065 325.906 358.679 324.652 358.679H322.815ZM334.514 355.499H340.809C343.165 355.499 344.991 356.161 346.287 357.486C347.59 358.811 348.242 360.702 348.242 363.158C348.242 365.629 347.587 367.555 346.276 368.938C344.973 370.312 343.15 371 340.809 371H334.514V355.499ZM338.456 358.679V367.82H340.293C341.582 367.82 342.56 367.43 343.226 366.649C343.899 365.869 344.235 364.709 344.235 363.169C344.235 361.722 343.892 360.612 343.204 359.839C342.517 359.065 341.546 358.679 340.293 358.679H338.456ZM360.778 367.82V371H350.154V355.499H360.778V358.679H354.097V361.762H360.381V364.662H354.097V367.82H360.778ZM366.74 371H363.002V355.499H366.149L372.724 364.512H372.81V355.499H376.548V371H373.433L366.826 361.901H366.74V371Z" fill="#3C3A31"/>
<path d="M285.807 230V225.193H269.859V217.31C272.6 211.949 276.523 205.375 281.629 197.589H294.791V217.894H298.654V225.193H294.791V230H285.807ZM277.766 218.006V218.275H286.076V203.833H285.896C284.01 206.738 282.49 209.179 281.337 211.155C280.184 213.117 278.993 215.4 277.766 218.006ZM315.904 230.898C311.502 230.898 308.021 229.371 305.46 226.316C302.899 223.247 301.619 219.047 301.619 213.716C301.619 208.37 302.899 204.192 305.46 201.183C308.035 198.173 311.517 196.668 315.904 196.668C320.292 196.668 323.766 198.173 326.326 201.183C328.887 204.177 330.167 208.348 330.167 213.693C330.167 219.024 328.887 223.224 326.326 226.294C323.766 229.364 320.292 230.898 315.904 230.898ZM312.58 221.061C313.419 222.738 314.527 223.576 315.904 223.576C317.282 223.576 318.382 222.738 319.206 221.061C320.045 219.383 320.464 216.935 320.464 213.716C320.464 210.496 320.052 208.071 319.229 206.438C318.405 204.806 317.297 203.99 315.904 203.99C314.512 203.99 313.396 204.806 312.558 206.438C311.734 208.071 311.322 210.496 311.322 213.716C311.322 216.935 311.742 219.383 312.58 221.061ZM343.015 216.658V210.279H346.968C348.211 210.279 349.191 209.98 349.91 209.381C350.644 208.782 351.011 207.966 351.011 206.933C351.011 205.914 350.644 205.113 349.91 204.529C349.176 203.93 348.158 203.631 346.855 203.631C345.583 203.631 344.549 203.99 343.756 204.709C342.962 205.413 342.565 206.334 342.565 207.472H333.985C334 204.222 335.221 201.617 337.646 199.655C340.072 197.679 343.277 196.69 347.26 196.69C351.093 196.69 354.133 197.499 356.379 199.116C358.64 200.718 359.771 202.89 359.771 205.63C359.771 207.547 359.142 209.179 357.884 210.526C356.626 211.859 355.001 212.705 353.01 213.064V213.244C355.421 213.514 357.337 214.33 358.76 215.692C360.182 217.04 360.894 218.807 360.894 220.993C360.894 224.018 359.621 226.429 357.075 228.226C354.53 230.007 351.108 230.898 346.811 230.898C342.887 230.898 339.705 229.918 337.265 227.956C334.839 225.979 333.544 223.337 333.379 220.027H342.453C342.483 221.105 342.902 221.959 343.711 222.588C344.52 223.202 345.62 223.509 347.013 223.509C348.271 223.509 349.281 223.194 350.045 222.565C350.824 221.922 351.213 221.076 351.213 220.027C351.213 218.964 350.831 218.141 350.067 217.557C349.319 216.958 348.271 216.658 346.923 216.658H343.015ZM290.621 251.82V255H279.997V239.499H290.621V242.679H283.939V245.762H290.224V248.662H283.939V251.82H290.621ZM296.787 242.475V246.879H299.097C299.82 246.879 300.386 246.682 300.794 246.288C301.202 245.894 301.406 245.361 301.406 244.688C301.406 244.021 301.195 243.488 300.772 243.087C300.35 242.679 299.788 242.475 299.086 242.475H296.787ZM296.787 249.575V255H292.845V239.499H299.483C301.403 239.499 302.874 239.947 303.898 240.842C304.923 241.737 305.435 242.994 305.435 244.612C305.435 245.586 305.198 246.471 304.726 247.266C304.26 248.053 303.612 248.63 302.781 248.995L305.886 255H301.46L298.796 249.575H296.787ZM311.354 242.475V246.879H313.663C314.386 246.879 314.952 246.682 315.36 246.288C315.769 245.894 315.973 245.361 315.973 244.688C315.973 244.021 315.761 243.488 315.339 243.087C314.916 242.679 314.354 242.475 313.652 242.475H311.354ZM311.354 249.575V255H307.411V239.499H314.05C315.969 239.499 317.441 239.947 318.465 240.842C319.489 241.737 320.001 242.994 320.001 244.612C320.001 245.586 319.765 246.471 319.292 247.266C318.826 248.053 318.178 248.63 317.348 248.995L320.452 255H316.026L313.362 249.575H311.354ZM323.61 241.39C324.993 239.95 326.858 239.23 329.207 239.23C331.556 239.23 333.418 239.95 334.793 241.39C336.168 242.829 336.855 244.784 336.855 247.255C336.855 249.726 336.168 251.681 334.793 253.12C333.418 254.552 331.556 255.269 329.207 255.269C326.851 255.269 324.985 254.552 323.61 253.12C322.235 251.681 321.548 249.726 321.548 247.255C321.548 244.784 322.235 242.829 323.61 241.39ZM331.85 243.742C331.191 242.868 330.31 242.432 329.207 242.432C328.104 242.432 327.22 242.868 326.554 243.742C325.895 244.609 325.565 245.78 325.565 247.255C325.565 248.723 325.895 249.894 326.554 250.768C327.213 251.634 328.097 252.067 329.207 252.067C330.31 252.067 331.191 251.634 331.85 250.768C332.516 249.894 332.849 248.723 332.849 247.255C332.849 245.78 332.516 244.609 331.85 243.742ZM342.721 242.475V246.879H345.03C345.754 246.879 346.319 246.682 346.728 246.288C347.136 245.894 347.34 245.361 347.34 244.688C347.34 244.021 347.129 243.488 346.706 243.087C346.284 242.679 345.721 242.475 345.02 242.475H342.721ZM342.721 249.575V255H338.778V239.499H345.417C347.336 239.499 348.808 239.947 349.832 240.842C350.856 241.737 351.368 242.994 351.368 244.612C351.368 245.586 351.132 246.471 350.659 247.266C350.194 248.053 349.546 248.63 348.715 248.995L351.819 255H347.394L344.729 249.575H342.721Z" fill="#2D68C4"/>
</svg>
