<svg width="635" height="458" viewBox="0 0 635 458" fill="none" xmlns="http://www.w3.org/2000/svg">
<g clip-path="url(#clip0)">
<path d="M607.635 456.922C567.575 456.922 25.9799 455.752 25.9799 455.687C25.7566 455.159 -42.7737 371.012 43.5195 283.033C86.2767 239.44 4.25497 182.962 43.5195 134.472C87.1885 80.5421 130.559 81.3465 170.783 82.1508C192.511 82.5869 213.324 83.0229 232.768 74.8276C242.565 70.7056 252.394 64.0676 262.234 53.8817C267.773 48.1563 273.842 43.146 280.341 38.8209C281.338 38.1546 282.344 37.5046 283.36 36.8736C287.253 34.4551 291.286 32.2722 295.441 30.306C298.234 28.987 301.077 27.7656 303.975 26.6471H303.978C308.574 24.865 313.296 23.3294 318.119 22.0321C324.966 20.1878 332.019 18.8174 339.21 17.8885C342.346 17.4795 345.509 17.1599 348.693 16.9189C410.641 12.2525 480.353 38.4958 516.331 76.8534C523.573 84.5775 556.51 124.541 530.548 179.473C514.155 214.156 582.827 247.278 607.232 286.882C669.272 387.573 608.197 455.608 607.635 456.922Z" fill="#EBF3FA"/>
<path d="M431.005 265.207L413.318 238.647L402.705 198.938L402.621 198.621H386.666L357.884 155.399C360.579 155.879 364.232 158.194 368.887 161.341C370.59 162.492 371.879 162.969 372.896 162.969C376.683 162.969 376.691 156.361 380.359 153.514C381.224 152.843 382.346 152.583 383.601 152.583C385.752 152.583 388.302 153.349 390.64 154.113C392.978 154.879 395.103 155.643 396.411 155.643C397.133 155.643 397.603 155.41 397.722 154.812C398.396 151.426 393.47 149.633 389.199 148.358C384.925 147.082 383.314 145.379 387.231 138.429C391.143 131.48 386.536 133.432 383.692 125.137C382.4 121.367 379.959 119.485 377.683 118.561C375.721 118.962 373.769 119.441 371.847 119.994C367.813 121.15 363.883 122.626 360.096 124.403C354.348 127.095 348.926 130.478 343.96 134.489C348.926 130.478 354.348 127.095 360.096 124.403C363.883 122.626 367.813 121.15 371.847 119.994C373.769 119.441 375.721 118.962 377.683 118.561C382.844 117.497 388.134 116.947 393.478 116.947C402.405 116.947 411.485 118.48 420.365 121.714C422.247 122.399 424.088 123.149 425.882 123.961C428.418 125.104 430.865 126.366 433.219 127.745C443.137 133.538 451.437 141.313 457.8 150.362L457.803 150.365C461.768 156.001 464.98 162.127 467.356 168.583C468.605 171.971 469.624 175.451 470.397 178.994C470.881 181.201 471.273 183.427 471.568 185.681C472.276 191.089 472.422 196.606 471.976 202.15C471.441 201.622 470.822 201.232 470.124 200.999C470.124 200.999 471.362 198.938 461.495 196.181C451.628 193.426 455.84 182.398 446.895 179.977C445.178 179.514 443.759 179.332 442.532 179.332C440.48 179.332 438.974 179.836 437.536 180.34C436.101 180.844 434.733 181.345 432.952 181.345C432.046 181.345 431.032 181.215 429.848 180.887C427.864 180.337 425.92 180.039 424.166 180.039C419.543 180.039 416.28 182.125 417.313 187.208C418.74 194.22 410.587 192.506 412.163 200.826C413.742 209.148 423.174 209.652 430.924 210.172C438.677 210.692 426.612 220.325 431.765 227.435C436.917 234.546 447.136 235.754 441.634 239.402C436.131 243.053 425.677 250.55 433.565 257.61C435.241 259.113 437.234 259.855 439.423 259.923C436.728 261.862 433.914 263.628 431.005 265.207ZM455.502 175.581C458.99 175.581 460.73 178.122 462.598 180.66C464.469 183.2 466.469 185.738 470.481 185.738C470.827 185.738 471.189 185.719 471.568 185.681C471.273 183.427 470.881 181.201 470.397 178.994C469.624 175.451 468.605 171.971 467.356 168.583C464.98 162.127 461.768 156.001 457.803 150.365L457.8 150.362C457.305 150.232 456.813 150.167 456.329 150.167C456.302 150.167 456.275 150.167 456.248 150.167C456.248 150.167 453.056 148.404 449.863 148.404C448.19 148.404 446.519 148.889 445.308 150.37C441.797 154.673 434.3 149.991 431.573 155.973C428.845 161.959 442.267 158.755 446.252 164.67C450.009 170.254 447.155 175.671 453.583 175.671C453.967 175.671 454.38 175.652 454.832 175.611C455.062 175.592 455.286 175.581 455.502 175.581ZM397.614 126.128C394.473 126.128 392.8 129.094 394.565 133.565C396.538 138.554 396.879 146.335 400.223 146.335C400.758 146.335 401.369 146.134 402.075 145.695C406.584 142.884 407.56 139.737 410.628 139.737C411.052 139.737 411.517 139.797 412.039 139.927C412.039 139.927 418.419 135.404 412.42 131.201C406.422 126.995 405.697 129.375 400.731 126.943C399.599 126.388 398.542 126.128 397.614 126.128Z" fill="#DBE8FE"/>
<path d="M372.896 162.969C371.879 162.969 370.59 162.492 368.887 161.341C364.232 158.194 360.579 155.879 357.884 155.399L343.96 134.488C348.926 130.477 354.348 127.095 360.096 124.403C363.883 122.626 367.813 121.15 371.847 119.994C373.769 119.441 375.721 118.962 377.683 118.561C379.959 119.485 382.4 121.367 383.692 125.137C386.536 133.432 391.143 131.48 387.231 138.429C383.314 145.378 384.925 147.082 389.199 148.358C393.47 149.633 398.396 151.426 397.722 154.811C397.604 155.41 397.133 155.643 396.411 155.643C395.103 155.643 392.978 154.879 390.64 154.113C388.302 153.349 385.752 152.583 383.601 152.583C382.346 152.583 381.224 152.843 380.359 153.514C376.691 156.361 376.683 162.969 372.896 162.969Z" fill="#BACDFE"/>
<path d="M439.423 259.923C437.234 259.855 435.241 259.113 433.565 257.61C425.677 250.55 436.131 243.053 441.634 239.402C447.136 235.754 436.917 234.546 431.765 227.434C426.612 220.325 438.677 210.692 430.924 210.172C423.174 209.652 413.742 209.148 412.163 200.825C410.587 192.506 418.74 194.22 417.313 187.208C416.28 182.125 419.543 180.039 424.166 180.039C425.92 180.039 427.864 180.337 429.848 180.887C431.032 181.215 432.046 181.345 432.952 181.345C434.733 181.345 436.101 180.844 437.536 180.34C438.974 179.836 440.48 179.332 442.532 179.332C443.759 179.332 445.178 179.514 446.895 179.977C455.84 182.398 451.628 193.426 461.495 196.181C471.362 198.938 470.124 200.999 470.124 200.999C470.822 201.232 471.441 201.622 471.976 202.15C471.422 209.05 469.943 215.995 467.467 222.814C465.815 227.369 463.785 231.686 461.425 235.733C455.762 245.445 448.212 253.61 439.423 259.923Z" fill="#BACDFE"/>
<path d="M470.481 185.737C466.47 185.737 464.469 183.2 462.598 180.659C460.731 178.122 458.99 175.581 455.502 175.581C455.286 175.581 455.062 175.592 454.832 175.611C454.381 175.652 453.967 175.671 453.583 175.671C447.155 175.671 450.009 170.254 446.252 164.67C442.267 158.755 428.845 161.959 431.573 155.973C434.301 149.991 441.797 154.673 445.308 150.37C446.519 148.888 448.19 148.404 449.863 148.404C453.056 148.404 456.248 150.167 456.248 150.167C456.276 150.167 456.303 150.167 456.33 150.167C456.813 150.167 457.305 150.232 457.8 150.362L457.803 150.364C461.769 156 464.98 162.127 467.356 168.583C468.605 171.971 469.624 175.451 470.397 178.994C470.881 181.201 471.273 183.427 471.568 185.681C471.19 185.719 470.827 185.737 470.481 185.737Z" fill="#BACDFE"/>
<path d="M400.223 146.335C396.879 146.335 396.538 138.554 394.565 133.565C392.8 129.094 394.473 126.128 397.614 126.128C398.542 126.128 399.599 126.388 400.731 126.943C405.697 129.375 406.422 126.995 412.42 131.201C418.419 135.404 412.039 139.927 412.039 139.927C411.517 139.797 411.052 139.737 410.628 139.737C407.56 139.737 406.584 142.884 402.075 145.695C401.369 146.134 400.758 146.335 400.223 146.335Z" fill="#BACDFE"/>
<path d="M43.8672 455.911H71.3317C72.8033 454.66 70.3133 451.819 67.7114 451.63C66.5812 451.543 65.1522 451.781 63.5195 452.125C63.1415 447.096 60.9832 424.49 52.8491 425.397C43.7031 426.415 52.8491 435.353 55.4345 440.645C57.3498 444.566 59.3702 450.186 60.2934 452.84C59.551 453.003 58.7822 453.16 57.9969 453.303C56.7848 449.577 52.2741 437.032 46.538 437.763C39.8033 438.619 42.5104 443.648 47.2838 446.633C50.7859 448.829 55.0863 451.949 57.1297 453.455C55.3983 453.739 53.5914 453.929 51.7583 453.888C47.0541 453.775 44.7576 455.164 43.8672 455.911Z" fill="#A8D29F"/>
<path d="M480.959 455.911H455.451C454.083 454.75 456.397 452.112 458.814 451.933C459.863 451.854 461.19 452.074 462.707 452.396C463.058 447.724 465.061 426.724 472.617 427.569C481.113 428.515 472.617 436.815 470.216 441.734C468.438 445.374 466.561 450.595 465.702 453.06C466.394 453.209 467.108 453.355 467.837 453.49C468.962 450.026 473.152 438.375 478.48 439.055C484.736 439.849 482.222 444.52 477.788 447.294C474.533 449.333 470.541 452.231 468.643 453.631C470.249 453.894 471.927 454.07 473.631 454.032C478.002 453.926 480.135 455.218 480.959 455.911Z" fill="#A8D29F"/>
<path d="M499.179 288.382C499.179 288.382 499.787 282.332 496.627 282.537C493.47 282.746 492.635 284.198 492.986 285.359C493.34 286.521 496.411 290.37 496.411 290.37L499.179 288.382Z" fill="#FFB27D"/>
<path d="M548.387 300.504C548.387 300.504 544.889 304.621 537.371 309.368C536.66 309.821 535.914 310.273 535.13 310.731C532.21 312.434 528.785 314.181 524.831 315.809C524.395 315.987 523.884 316.185 523.309 316.391C518.805 318.021 510.514 320.332 505.378 320.54C504.929 320.556 504.507 320.556 504.113 320.543C496.292 320.226 495.341 289.823 495.341 289.823C495.341 289.823 496.211 286.781 500.228 287.548C500.228 287.548 506.327 304.718 508.514 306.116C510.457 307.362 521.616 290.41 531.224 289.224C537.693 288.428 548.387 300.504 548.387 300.504Z" fill="#739AF0"/>
<path d="M527.38 448.762C527.38 448.762 527.958 455.454 526.547 456.15L508.476 456.115C508.476 456.115 508.476 454.024 511.376 453.561C514.28 453.095 519.378 451.394 520.243 447.6C521.105 443.808 527.38 448.762 527.38 448.762Z" fill="#1C3154"/>
<path d="M514.115 367.762C514.204 372.139 514.412 376.651 514.823 380.708C516.775 399.958 517.462 423.217 517.743 427.702C518.229 435.486 519.762 447.922 519.762 447.922C519.762 447.922 522.809 450.817 528.742 449.436C528.742 449.436 533.66 431.523 534.757 412.666C534.773 412.354 534.789 412.045 534.806 411.734C534.933 409.24 535.068 406.388 535.203 403.314C536.109 382.723 537.09 352.132 537.09 352.132L514.412 346.797C514.412 346.797 513.89 356.853 514.115 367.762Z" fill="#2A4E96"/>
<path d="M514.115 367.762C519.862 377.696 530.816 395.996 535.203 403.314C536.109 382.723 537.09 352.133 537.09 352.133L514.412 346.797C514.412 346.797 513.89 356.853 514.115 367.762Z" fill="#233862"/>
<path d="M523.309 316.391C518.805 318.021 510.514 320.332 505.378 320.54C506.162 320.391 511.882 319.256 513.999 316.697C516.269 313.948 520.097 306.476 523.138 309.525C524.571 310.961 524.152 313.796 523.309 316.391Z" fill="#6385DB"/>
<path d="M561.414 364.526C561.414 364.526 562.822 370.056 562.59 371.283C562.36 372.512 560.987 376.675 560.13 377.707C559.273 378.741 559.238 373.219 558.667 372.353C558.097 371.483 558.405 374.414 557.948 374.652C557.494 374.893 556.732 372.434 556.391 371.562C556.053 370.692 557.61 367.659 557.754 365.484C557.897 363.31 561.414 364.526 561.414 364.526Z" fill="#FFB27D"/>
<path d="M572.398 441.157C572.398 441.157 575.615 444.095 574.987 446.186C574.36 448.277 571.457 449.669 571.065 452.223C570.673 454.777 569.105 456.169 567.691 456.169C566.28 456.169 560.96 456.169 560.96 456.169C560.96 456.169 559.919 454.373 562.43 453.832C564.942 453.29 565.888 450.286 565.731 447.502C565.574 444.715 565.966 441 565.966 441L571.3 439.762L572.398 441.157Z" fill="#1C3154"/>
<path d="M517.986 352.598C517.986 352.598 539.215 398.103 550.512 418.069C561.809 438.034 565.339 443.608 565.339 443.608C565.339 443.608 571.811 441.054 572.397 439.313C572.397 439.313 568.078 400.765 560.514 391.37C556.237 386.059 551.217 370.126 550.982 364.555C550.747 358.982 545.786 345.684 545.786 345.684L517.986 352.598Z" fill="#2A4E96"/>
<path d="M514.031 350.231C514.031 350.231 520.943 357.684 532.689 359.935C537.844 360.924 548.308 361.877 550.904 358.202C551.512 357.338 551.517 356.059 551.382 354.063C551.033 348.877 549.73 338.848 555.61 318.696C556.159 316.822 556.526 315.023 556.74 313.309C558.024 303.001 557.886 295.218 548.957 291.06C535.579 284.831 530.088 289.955 530.088 289.955C530.088 289.955 522.973 293.287 519.724 302.993C513.223 322.412 514.031 350.231 514.031 350.231Z" fill="#739AF0"/>
<path d="M540.926 289.349C538.674 290.952 534.711 291.897 530.935 290.004C530.643 289.858 530.678 287.856 530.751 285.89C530.824 283.962 531.005 282.069 531.005 282.069L535.765 278.938L540.307 275.954C539.763 286.218 541.942 288.62 540.926 289.349Z" fill="#FFB27D"/>
<path d="M539.509 280.189C539.509 280.189 536.42 284.834 530.751 285.89C530.824 283.962 531.029 281.836 531.029 281.836L535.765 278.938L539.509 280.189Z" fill="#ED985F"/>
<path d="M526.742 280.861C526.742 280.861 538.258 285.167 540.821 278.058C543.383 270.949 546.595 266.718 539.35 263.669C532.108 260.619 529.694 262.818 528.253 264.982C526.812 267.146 523.814 279.558 526.742 280.861Z" fill="#FFB27D"/>
<path d="M547.995 264.468C548.127 264.365 548.395 264.313 548.957 264.395C548.957 264.395 548.568 264.029 547.979 263.896C548.014 263.1 547.873 261.651 546.614 261.058C546.614 261.058 547.252 261.578 547.181 262.417C545.957 260.532 542.891 258.729 533.627 257.645C521.422 256.218 523.863 264.711 525.236 265.938C526.612 267.165 531.027 265.421 533.878 266.225C536.733 267.03 536.457 271.336 537.328 272.108C538.196 272.877 538.012 271.783 539.461 271.444C540.91 271.103 540.602 273.337 539.934 274.7C539.266 276.059 540.72 278.315 540.72 278.315C540.72 278.315 540.72 278.315 542.961 276.687C545.202 275.06 548.609 266.959 548.125 264.993C548.081 264.82 548.038 264.644 547.995 264.468Z" fill="#2C3A64"/>
<path d="M551.382 354.063C551.033 348.877 549.73 338.848 555.61 318.696C556.159 316.822 556.526 315.023 556.74 313.309C552.372 311.865 544.41 315.077 544.41 315.077C544.41 315.077 542.54 341.716 551.382 354.063Z" fill="#6385DB"/>
<path d="M551.366 292.409C551.366 292.409 556.74 294.367 560.171 308.624C562.436 318.046 566.604 331.891 567.075 336.243C567.545 340.595 562.309 366.069 562.309 366.069C562.309 366.069 561.568 366.608 559.76 366.245C558.027 365.899 557.221 364.726 557.221 364.726C557.221 364.726 555.967 347.745 556.291 339.728C556.427 336.397 540.902 315.335 532.521 312.621C529.232 311.557 551.366 292.409 551.366 292.409Z" fill="#739AF0"/>
<path d="M476.18 273.952C476.18 273.952 491.716 273.508 509.646 276.815L511.517 272.086L513.572 266.905C513.572 266.905 495.573 259.143 484.755 248.332L476.18 273.952Z" fill="#AEC3FF"/>
<path d="M485 248.08L476.08 274.461C474.777 274.074 474.063 272.671 474.517 271.385L482.368 249.22C482.749 248.147 483.96 247.622 485 248.08Z" fill="#F99746"/>
<path d="M493.516 293.584C495.249 293.934 496.952 292.796 497.298 291.058L500.369 275.661C500.717 273.925 499.582 272.219 497.846 271.872C496.111 271.525 494.411 272.663 494.062 274.399L490.991 289.796C490.645 291.532 491.78 293.238 493.516 293.584Z" fill="#F99746"/>
<path d="M476.18 273.952C476.18 273.952 491.715 273.508 509.646 276.815L511.517 272.086C494.673 268.641 476.18 273.952 476.18 273.952Z" fill="#739AF0"/>
<path d="M504.689 275.864L509.544 276.72C509.468 276.723 514.053 277.614 515.556 273.543C515.693 273.264 515.78 272.991 515.842 272.666C517.01 267.593 514.231 266.659 514.231 266.659L507.981 264.218L505.997 271.257C505.997 271.257 505.997 271.257 505.997 271.282L504.689 275.864Z" fill="#F99746"/>
<path d="M504.689 275.864L509.544 276.72C509.468 276.723 514.053 277.614 515.556 273.543C512.809 271.542 505.997 271.257 505.997 271.257C505.997 271.257 505.997 271.257 505.997 271.282L504.689 275.864Z" fill="#ED7D2B"/>
<path d="M493.929 278.678C493.929 278.678 496.303 279.626 495.868 280.674C495.432 281.719 492.413 283.16 491.937 282.334C491.461 281.508 492.435 277.792 493.929 278.678Z" fill="#FFB27D"/>
<path d="M499.225 287.429C499.225 287.429 499.674 284.994 499.701 283.875C499.728 282.757 499.86 281.844 499.598 281.812C499.333 281.782 499.144 281.988 499.036 282.348C498.928 282.705 498.517 284.937 498.517 284.937L498.725 287.087L499.225 287.429Z" fill="#FFB27D"/>
<path d="M264.329 285.839L250.875 446.116C250.875 446.116 249.467 455.833 256.679 455.849C268.538 455.879 315.713 455.849 315.713 455.849C315.713 455.849 306.784 453.826 306.892 449.276C307.022 443.914 322.62 284.322 322.62 284.322L264.329 285.839Z" fill="#7599EA"/>
<path d="M320.152 453.006C317.819 453.014 272.15 453.09 260.601 452.941C255.568 452.878 254.684 448.458 254.643 445.596C254.622 444.225 254.795 443.21 254.795 443.21L255.146 439.044L256.038 428.428L256.825 419.046L257.836 406.992L258.69 396.819L268.249 282.93L326.54 281.414C326.54 281.414 319.971 348.203 315.324 396.819C314.805 402.236 314.31 407.428 313.856 412.278C313.707 413.825 313.564 415.339 313.426 416.812C312.996 421.411 312.602 425.636 312.258 429.365C312.077 431.331 311.912 433.157 311.761 434.83C311.166 441.387 310.82 445.574 310.815 446.37C310.812 446.833 310.853 447.264 310.928 447.668C311.885 452.775 319.276 453.006 320.152 453.006Z" fill="#90AFF4"/>
<path d="M122.77 198.621L155.544 330.509L160.031 348.574L175.295 410.003H458.881L402.621 198.621H122.77Z" fill="#AEC3FF"/>
<path d="M122.77 198.621L118.228 200.138L169.257 414.591L175.296 410.003L122.77 198.621Z" fill="#90AFF4"/>
<path d="M169.257 414.591H451.099L458.881 410.003H175.296L169.257 414.591Z" fill="#7599EA"/>
<path d="M268.23 455.911H329.254V453.005H268.23V455.911Z" fill="#AEC3FF"/>
<path d="M313.742 414.591L313.426 416.812L256.038 428.428L256.825 419.046L257.201 414.591H313.742Z" fill="#5888DD"/>
<path d="M320.152 453.006H270.952C266.557 452.992 262.902 452.97 260.601 452.941C255.568 452.878 254.684 448.458 254.643 445.596L311.761 434.83C311.166 441.387 310.82 445.574 310.815 446.37C310.815 446.384 310.815 446.397 310.815 446.414C310.815 446.86 310.855 447.278 310.928 447.668C311.885 452.775 319.276 453.006 320.152 453.006Z" fill="#7A9FEB"/>
<path d="M292.214 453.033C284.796 453.033 277.14 453.024 270.952 453.005H320.152C318.938 453.011 305.984 453.033 292.214 453.033Z" fill="#8CABF1"/>
<path d="M122.77 198.621H402.621L448.025 368.507H164.984L122.77 198.621Z" fill="#AEC3FF"/>
<path d="M434.828 361.143H172.801L163.438 323.774L159.816 309.314L158.339 303.418L148.715 265.015L148.216 263.016L143.129 242.715L140.853 233.634L138.912 225.885L134.361 207.724H392.608L397.606 225.885L399.739 233.634L402.237 242.715L418.703 302.554V302.557L420.098 307.627L420.746 309.981L432.116 351.29L434.828 361.143Z" fill="#739AF0"/>
<path d="M397.606 225.885H138.913L134.362 207.721H392.611L397.606 225.885Z" fill="#607CF4"/>
<path d="M145.045 215.93C144.733 214.676 145.495 213.66 146.747 213.66C147.999 213.66 149.266 214.676 149.578 215.93C149.891 217.183 149.129 218.202 147.877 218.202C146.625 218.202 145.357 217.183 145.045 215.93Z" fill="#E9F3FE"/>
<path d="M152.576 215.93C152.264 214.676 153.026 213.66 154.278 213.66C155.529 213.66 156.797 214.676 157.109 215.93C157.421 217.183 156.66 218.202 155.408 218.202C154.156 218.202 152.888 217.183 152.576 215.93Z" fill="#E9F3FE"/>
<path d="M160.685 215.93C160.373 214.676 161.135 213.66 162.387 213.66C163.638 213.66 164.906 214.676 165.218 215.93C165.53 217.183 164.769 218.202 163.517 218.202C162.265 218.202 160.997 217.183 160.685 215.93Z" fill="#E9F3FE"/>
<path d="M341.237 102.124C351.829 89.6662 368.159 64.6415 379.154 51.8259C381.416 49.188 379.538 45.1175 376.064 45.1175H356.057L374.928 2.36709C375.734 0.541695 373.252 -0.912643 372.06 0.685249L326.429 61.8737C325.099 63.6584 326.553 66.169 328.762 65.8982L351.41 63.1032L337.934 100.188C337.193 102.23 339.832 103.776 341.237 102.124Z" fill="#F77D48"/>
<path d="M247.042 178C249.423 165.758 250.926 143.017 253.446 130.385C253.962 127.785 251.194 125.787 248.888 127.089L235.602 134.586L232.174 99.1181C232.025 97.6042 229.835 97.569 229.638 99.0775L222.177 156.816C221.958 158.5 223.864 159.624 225.229 158.617L239.229 148.271L244.125 177.954C244.395 179.587 246.725 179.625 247.042 178Z" fill="#AEC3FF"/>
<path d="M446.273 364.761L218.595 383.977C201.305 385.436 188.794 367.781 195.874 351.91L292.332 135.634C299.65 119.227 322.144 117.329 332.098 132.279L463.317 329.337C472.947 343.796 463.561 363.301 446.273 364.761Z" fill="#E6EFFF"/>
<path d="M287.678 282V277.193H271.73V269.31C274.471 263.949 278.394 257.375 283.5 249.589H296.662V269.894H300.525V277.193H296.662V282H287.678ZM279.637 270.006V270.275H287.947V255.833H287.768C285.881 258.738 284.361 261.179 283.208 263.155C282.055 265.117 280.865 267.4 279.637 270.006ZM317.775 282.898C313.373 282.898 309.892 281.371 307.331 278.316C304.771 275.247 303.49 271.047 303.49 265.716C303.49 260.37 304.771 256.192 307.331 253.183C309.907 250.173 313.388 248.668 317.775 248.668C322.163 248.668 325.637 250.173 328.197 253.183C330.758 256.177 332.038 260.348 332.038 265.693C332.038 271.024 330.758 275.224 328.197 278.294C325.637 281.364 322.163 282.898 317.775 282.898ZM314.451 273.061C315.29 274.738 316.398 275.576 317.775 275.576C319.153 275.576 320.254 274.738 321.077 273.061C321.916 271.383 322.335 268.935 322.335 265.716C322.335 262.496 321.923 260.071 321.1 258.438C320.276 256.806 319.168 255.99 317.775 255.99C316.383 255.99 315.267 256.806 314.429 258.438C313.605 260.071 313.193 262.496 313.193 265.716C313.193 268.935 313.613 271.383 314.451 273.061ZM349.76 282.898C345.357 282.898 341.876 281.371 339.315 278.316C336.755 275.247 335.475 271.047 335.475 265.716C335.475 260.37 336.755 256.192 339.315 253.183C341.891 250.173 345.372 248.668 349.76 248.668C354.147 248.668 357.621 250.173 360.182 253.183C362.742 256.177 364.022 260.348 364.022 265.693C364.022 271.024 362.742 275.224 360.182 278.294C357.621 281.364 354.147 282.898 349.76 282.898ZM346.436 273.061C347.274 274.738 348.382 275.576 349.76 275.576C351.137 275.576 352.238 274.738 353.062 273.061C353.9 271.383 354.319 268.935 354.319 265.716C354.319 262.496 353.908 260.071 353.084 258.438C352.26 256.806 351.152 255.99 349.76 255.99C348.367 255.99 347.252 256.806 346.413 258.438C345.59 260.071 345.178 262.496 345.178 265.716C345.178 268.935 345.597 271.383 346.436 273.061ZM293.121 303.82V307H282.497V291.499H293.121V294.679H286.439V297.762H292.724V300.662H286.439V303.82H293.121ZM299.287 294.475V298.879H301.597C302.32 298.879 302.886 298.682 303.294 298.288C303.702 297.894 303.906 297.361 303.906 296.688C303.906 296.021 303.695 295.488 303.272 295.087C302.85 294.679 302.288 294.475 301.586 294.475H299.287ZM299.287 301.575V307H295.345V291.499H301.983C303.903 291.499 305.374 291.947 306.398 292.842C307.423 293.737 307.935 294.994 307.935 296.612C307.935 297.586 307.698 298.471 307.226 299.266C306.76 300.053 306.112 300.63 305.281 300.995L308.386 307H303.96L301.296 301.575H299.287ZM313.854 294.475V298.879H316.163C316.886 298.879 317.452 298.682 317.86 298.288C318.269 297.894 318.473 297.361 318.473 296.688C318.473 296.021 318.261 295.488 317.839 295.087C317.416 294.679 316.854 294.475 316.152 294.475H313.854ZM313.854 301.575V307H309.911V291.499H316.55C318.469 291.499 319.941 291.947 320.965 292.842C321.989 293.737 322.501 294.994 322.501 296.612C322.501 297.586 322.265 298.471 321.792 299.266C321.326 300.053 320.678 300.63 319.848 300.995L322.952 307H318.526L315.862 301.575H313.854ZM326.11 293.39C327.493 291.95 329.358 291.23 331.707 291.23C334.056 291.23 335.918 291.95 337.293 293.39C338.668 294.829 339.355 296.784 339.355 299.255C339.355 301.726 338.668 303.681 337.293 305.12C335.918 306.552 334.056 307.269 331.707 307.269C329.351 307.269 327.485 306.552 326.11 305.12C324.735 303.681 324.048 301.726 324.048 299.255C324.048 296.784 324.735 294.829 326.11 293.39ZM334.35 295.742C333.691 294.868 332.81 294.432 331.707 294.432C330.604 294.432 329.72 294.868 329.054 295.742C328.395 296.609 328.065 297.78 328.065 299.255C328.065 300.723 328.395 301.894 329.054 302.768C329.713 303.634 330.597 304.067 331.707 304.067C332.81 304.067 333.691 303.634 334.35 302.768C335.016 301.894 335.349 300.723 335.349 299.255C335.349 297.78 335.016 296.609 334.35 295.742ZM345.221 294.475V298.879H347.53C348.254 298.879 348.819 298.682 349.228 298.288C349.636 297.894 349.84 297.361 349.84 296.688C349.84 296.021 349.629 295.488 349.206 295.087C348.784 294.679 348.221 294.475 347.52 294.475H345.221ZM345.221 301.575V307H341.278V291.499H347.917C349.836 291.499 351.308 291.947 352.332 292.842C353.356 293.737 353.868 294.994 353.868 296.612C353.868 297.586 353.632 298.471 353.159 299.266C352.694 300.053 352.046 300.63 351.215 300.995L354.319 307H349.894L347.229 301.575H345.221Z" fill="#2D68C4"/>
<path d="M311.953 130.824C306.741 131.266 302.356 134.383 300.223 139.166L203.762 355.445C201.7 360.071 202.216 365.298 205.144 369.43C208.071 373.563 212.829 375.776 217.868 375.351L445.546 356.133C450.588 355.707 454.908 352.728 457.103 348.162C459.3 343.599 458.935 338.358 456.129 334.141L324.91 137.083C322.006 132.723 317.162 130.385 311.953 130.824ZM446.998 373.387L219.32 392.605C208.123 393.55 197.553 388.635 191.049 379.454C184.545 370.275 183.398 358.657 187.983 348.379L284.442 132.103C289.18 121.475 298.923 114.545 310.501 113.57C322.079 112.592 332.841 117.789 339.288 127.471L470.508 324.532C476.745 333.898 477.553 345.541 472.673 355.683C467.794 365.823 458.195 372.442 446.998 373.387Z" fill="#F77D48"/>
<path d="M165.238 297.265C165.238 297.265 165.952 295.656 166.414 294.895C166.876 294.134 168.852 291.903 169.188 292.409C169.524 292.913 170.869 296.315 170.154 297.265C169.44 298.218 170.201 299.876 166.647 300.878L165.238 297.265Z" fill="#FFB27D"/>
<path d="M125.75 287.109C125.75 287.109 143.94 302.321 151.032 300.913C156.578 299.811 165.346 297.024 165.346 297.024C165.346 297.024 167.66 299.231 167.006 301.875C167.006 301.875 155.835 312.404 147.877 312.472C135.437 312.578 129.57 306.297 129.57 306.297L125.75 287.109Z" fill="#ED7D2B"/>
<path d="M93.8492 447.562C93.8492 447.562 94.3774 456.096 96.0253 456.218C96.2446 456.234 104.384 456.234 104.384 456.234L114.774 456.174C114.774 456.174 114.706 453.664 111.669 453.136C108.632 452.605 103.548 450.465 101.708 446.443C99.7731 442.213 93.8492 447.562 93.8492 447.562Z" fill="#113C68"/>
<path d="M93.2504 448.152C93.2504 448.152 96.4089 449.211 98.8749 449.211C101.626 449.211 104.126 448.461 104.126 448.461C104.126 448.461 104.72 442.701 107.993 430.007C109.708 423.353 112.158 414.797 115.644 404.167C125.281 374.787 128.212 357.601 128.48 355.973C128.494 355.889 128.5 355.846 128.5 355.846L128.468 355.832L98.8389 342.797C98.8389 342.797 102.501 383.289 97.829 398.832C97.1742 401.004 96.6139 403.533 96.133 406.277C93.1823 423.158 93.2504 448.152 93.2504 448.152Z" fill="#2A4E96"/>
<path d="M107.993 430.007C109.708 423.352 112.158 414.797 115.644 404.167C125.281 374.787 128.212 357.601 128.48 355.973C128.477 355.924 128.474 355.878 128.468 355.832L98.8389 342.797C98.8389 342.797 102.501 383.289 97.8289 398.832C97.1742 401.004 107.993 430.007 107.993 430.007Z" fill="#233862"/>
<path d="M116.991 447.562C116.991 447.562 117.519 456.096 119.168 456.218C119.387 456.234 127.526 456.234 127.526 456.234L137.916 456.174C137.916 456.174 137.848 453.664 134.811 453.136C131.774 452.605 126.69 450.465 124.851 446.443C122.915 442.213 116.991 447.562 116.991 447.562Z" fill="#15447C"/>
<path d="M133.79 343.75C133.79 343.75 134.175 369.991 129.644 402.206C125.112 434.424 126.648 448.098 126.648 448.098C126.648 448.098 123.535 449.108 122.278 449.211C119.078 449.474 115.795 448.461 115.795 448.461C115.795 448.461 109.31 416.232 111.169 400.107C113.029 383.982 102.287 344.774 102.287 344.774L133.79 343.75Z" fill="#2A4E96"/>
<path d="M112.781 282.351L118.564 286.148L123.833 284.655C124.796 283.28 125.05 280.625 125.064 278.329C125.079 276.046 124.858 274.115 124.858 274.115L117.055 270.664L114.143 269.378C114.152 269.424 114.369 271.775 114.401 272.116C114.944 278.21 112.781 282.351 112.781 282.351Z" fill="#FFB27D"/>
<path d="M133.923 351.046C126.724 358.009 99.4793 356.839 97.8003 349.167C96.124 341.494 99.6315 283.854 111.928 280.233C114.48 279.483 128.123 283.9 128.123 283.9C128.123 283.9 130.263 289.511 131.667 296.653C131.94 298.045 132.735 312.773 133.33 326.553C133.608 332.998 133.843 339.236 133.963 343.804C134.072 348.084 134.078 350.895 133.923 351.046Z" fill="#F99746"/>
<path d="M114.984 272.224C116.568 274.905 122.122 277.253 125.064 278.329C125.079 276.046 124.858 274.115 124.858 274.115L117.055 270.664C115.33 270.64 114.279 271.027 114.984 272.224Z" fill="#FCA56B"/>
<path d="M127.801 273.638C127.801 273.638 115.228 277.568 112.907 269.686C110.585 261.803 107.398 257.004 115.327 254.16C123.257 251.319 125.709 253.862 127.123 256.305C128.537 258.748 131.012 272.414 127.801 273.638Z" fill="#FFB27D"/>
<path d="M126.629 255.547C126.629 255.547 125.827 264.717 123.934 264.319C122.041 263.921 119.957 263.07 120.234 265.835C120.511 268.598 118.393 273.34 115.663 273.327C109.808 273.302 103.446 258.249 105.049 255.398C109.674 247.162 133.314 245.499 126.629 255.547Z" fill="#163560"/>
<path d="M124.78 280.433C124.617 280.365 115.42 276.23 114.344 276.587C113.269 276.942 111.928 280.233 111.928 280.233L128.123 283.902C128.123 283.902 126.848 281.305 124.78 280.433Z" fill="#ED7D2B"/>
<path d="M182.04 325.071L130.482 373.704C129.472 374.657 128.197 374.961 127.65 374.378L125.91 372.526C125.363 371.944 125.742 370.69 126.753 369.736L178.31 321.104C179.321 320.15 180.595 319.847 181.142 320.429L182.882 322.279C183.428 322.861 183.05 324.118 182.04 325.071Z" fill="#1F4D84"/>
<path d="M153.107 352.363L130.482 373.704C129.472 374.657 128.197 374.961 127.65 374.378L125.91 372.526C125.363 371.944 125.742 370.69 126.753 369.736L149.378 348.395L153.107 352.363Z" fill="#739AF0"/>
<path d="M181.74 269.345C190.638 259.866 203.319 256.091 215.227 258.155C222.166 259.36 228.838 262.542 234.35 267.739C249.323 281.849 250.04 305.447 235.953 320.448C230.768 325.968 224.302 329.553 217.452 331.178C205.69 333.968 192.803 330.975 183.342 322.057C168.371 307.944 167.652 284.346 181.74 269.345ZM170.189 306.709C172.169 313.244 175.834 319.365 181.156 324.383C197.412 339.704 222.988 338.919 238.278 322.636C253.37 306.565 252.808 281.408 237.169 266.025C236.961 265.816 236.75 265.613 236.534 265.413C220.282 250.092 194.709 250.869 179.417 267.154C169.13 278.107 166.114 293.284 170.189 306.709Z" fill="#1F4D84"/>
<path d="M196.19 329.973C193.541 329.017 190.976 327.747 188.551 326.163C186.729 324.971 184.983 323.603 183.342 322.057C168.371 307.944 167.652 284.347 181.74 269.345C182.326 268.72 182.928 268.121 183.547 267.547C190.643 260.942 199.737 257.608 208.85 257.608C210.983 257.608 213.116 257.792 215.227 258.157C219.114 258.832 222.92 260.126 226.483 262.052L196.19 329.973Z" fill="#93B5F5"/>
<path d="M214.316 331.782L239.924 274.364C240.027 274.518 240.129 274.675 240.229 274.832C243.544 280.027 245.452 285.879 245.942 291.835C246.771 301.988 243.471 312.442 235.953 320.448C230.768 325.968 224.302 329.553 217.452 331.178C216.416 331.425 215.367 331.625 214.316 331.782Z" fill="#CCDFFC"/>
<path d="M208.836 332.186C207.658 332.186 206.479 332.129 205.303 332.018C202.213 331.725 199.151 331.043 196.19 329.973L226.483 262.052C227.889 262.81 229.26 263.666 230.579 264.619C231.884 265.565 233.147 266.602 234.35 267.739C236.504 269.768 238.364 271.994 239.924 274.364L214.316 331.782C212.502 332.05 210.669 332.186 208.836 332.186Z" fill="#D5A6A1"/>
<path d="M208.839 332.186C207.66 332.186 206.479 332.129 205.303 332.018C206.479 332.129 207.658 332.186 208.836 332.186C210.669 332.186 212.502 332.05 214.316 331.782C215.367 331.625 216.416 331.425 217.452 331.178C224.302 329.553 230.768 325.968 235.953 320.448C243.471 312.442 246.771 301.988 245.941 291.835C246.771 301.988 243.471 312.442 235.956 320.448C230.768 325.968 224.302 329.553 217.452 331.181C214.627 331.85 211.732 332.186 208.839 332.186ZM188.551 326.163C186.726 324.971 184.983 323.603 183.342 322.057C168.37 307.944 167.652 284.347 181.739 269.345C182.326 268.72 182.928 268.121 183.547 267.547C182.928 268.121 182.326 268.72 181.74 269.345C167.652 284.347 168.371 307.944 183.342 322.057C184.983 323.603 186.729 324.971 188.551 326.163ZM240.229 274.832C240.129 274.675 240.027 274.518 239.924 274.364C238.364 271.994 236.504 269.768 234.35 267.739C233.147 266.602 231.884 265.565 230.579 264.619C231.884 265.565 233.147 266.602 234.35 267.737C236.645 269.901 238.607 272.289 240.229 274.832Z" fill="#698EBF"/>
<path d="M133.963 343.804C105.554 323.525 107.917 296.461 107.917 296.461C118.3 302.327 128.603 315.3 133.33 326.553C133.608 332.998 133.843 339.235 133.963 343.804Z" fill="#ED7D2B"/>
<path d="M162.001 334.569C164.005 334.106 165.35 332.589 165.63 332.324C165.63 332.324 166.484 332.381 165.49 334.206C165.406 334.361 165.221 334.753 165.082 335.03C165.025 335.143 165.104 335.276 165.231 335.284C166.387 335.374 167.549 334.916 169.776 335.379C170.084 335.444 170.173 336.181 170.161 336.495C170.141 337.028 170.179 337.624 169.562 338.439C169.204 338.913 168.202 339.425 165.973 340.322C165.123 340.666 162.695 340.408 160.418 339.623L158.599 338.781L159.164 335.393L159.62 335.49C160.346 335.642 161.245 334.753 162.001 334.569Z" fill="#FFB27D"/>
<path d="M116.733 283.902C116.733 283.902 91.2075 288.772 124.243 325.805C129.526 331.728 158.072 339.439 158.072 339.439C158.072 339.439 160.967 336.971 159.507 334.973C159.507 334.973 139.853 320.673 135.529 318.401C133.583 317.377 127.978 295.578 124.807 290.329C121.636 285.078 116.733 283.902 116.733 283.902Z" fill="#F99746"/>
<path d="M165.93 297.715C165.93 297.715 166.765 296.117 166.928 295.275C167.091 294.43 168.142 291.97 168.575 291.537C168.749 291.364 169.32 291.589 169.388 292.333C169.417 292.658 169.258 293.249 168.978 293.953C168.521 295.096 168.596 296.648 168.437 297.165C168.042 298.454 165.93 297.715 165.93 297.715Z" fill="#FFB27D"/>
<path d="M176.088 234.265C175.654 234.763 175.599 235.321 175.813 235.914L175.817 235.925C176.214 237.024 177.526 238.251 179.05 239.478C179.245 239.635 179.418 239.779 179.569 239.911C179.609 239.947 179.648 239.982 179.685 240.017C179.716 240.044 179.746 240.071 179.775 240.098C181.196 241.412 180.661 241.712 183.215 244.377C186.123 247.413 188.129 247.468 188.7 247.191C189.184 246.956 188.202 245.347 187.118 243.538C187.064 243.448 187.013 243.362 186.959 243.272C186.815 243.031 186.67 242.788 186.526 242.547C185.256 240.369 185.583 239.345 185.886 236.106C186.132 233.471 189.978 221.395 189.978 221.395L184.399 220.428C184.399 220.428 182.717 230.048 180.864 231.527C179.873 232.317 178.765 232.326 177.814 232.911C177.746 232.951 177.68 232.994 177.615 233.038C177.075 233.395 176.524 233.766 176.088 234.265Z" fill="#FFB27D"/>
<path d="M176.088 234.265C175.654 234.763 175.599 235.321 175.813 235.914L175.817 235.925C176.304 237.022 177.582 238.246 179.055 239.467C179.248 239.627 179.418 239.776 179.569 239.911C179.609 239.947 179.648 239.982 179.685 240.017C179.716 240.044 179.746 240.071 179.775 240.098C181.196 241.412 180.661 241.712 183.215 244.377C186.123 247.413 188.129 247.468 188.7 247.191C189.184 246.956 188.202 245.347 187.118 243.538C186.551 243.329 183.918 242.257 181.928 239.703C180.239 237.542 179.092 234.79 177.944 233.097C177.817 233.076 177.742 233.06 177.616 233.038C177.075 233.395 176.524 233.766 176.088 234.265Z" fill="#233862"/>
<path d="M221.085 230.79C221.428 232.515 223.885 232.228 226.627 231.559C229.37 230.887 228.719 231.686 232.622 231.253C236.526 230.822 237.71 229.365 237.829 228.783C237.937 228.266 236.007 228.084 233.939 227.843C233.679 227.816 233.417 227.784 233.155 227.751C230.819 227.456 229.108 225.945 226.989 224.704C224.978 223.529 221.98 218.741 221.98 218.741L216.627 219.163C216.627 219.163 219.433 223.44 220.52 225.3C221.158 226.392 221.125 227.838 221.044 228.954C221.004 229.56 220.963 230.181 221.085 230.79Z" fill="#FFB27D"/>
<path d="M226.627 231.559C229.37 230.887 228.719 231.686 232.623 231.253C236.526 230.822 237.71 229.365 237.829 228.783C237.937 228.266 236.007 228.084 233.939 227.843L233.92 227.884C233.92 227.884 231.576 229.547 228.327 229.623C225.678 229.688 222.874 228.927 221.044 228.954C221.004 229.56 220.963 230.181 221.085 230.79C221.428 232.515 223.885 232.228 226.627 231.559Z" fill="#233862"/>
<path d="M200.578 196.484L195.569 209.977L189.029 227.591C189.029 227.591 187.256 227.762 185.558 227.272C183.993 226.82 182.201 225.633 182.201 225.633C182.201 225.633 184.02 206.719 187.41 195.861C188.278 193.072 189.251 190.818 190.324 189.551C195.574 183.341 200.578 196.484 200.578 196.484Z" fill="#233862"/>
<path d="M195.498 175.053C192.649 174.132 185.215 175.034 177.151 176.494C174.923 176.898 172.678 175.879 171.505 173.937L151.214 172.345C151.214 172.345 144.513 187.219 148.175 196.698C148.714 198.093 149.896 198.962 151.721 198.992C151.721 198.992 163.982 199.014 167.904 199.014C177.995 199.016 189.265 192.072 190.722 191.78C193.106 191.303 194.06 196.083 196.442 201.102C198.826 206.123 218.857 223.334 218.857 223.334C218.857 223.334 221.936 223.367 223.21 222.89C224.578 222.375 225.078 221.709 225.078 221.709C225.078 221.709 202.892 177.445 195.498 175.053Z" fill="#2A4E96"/>
<path d="M169.37 114.239C167.863 113.339 166.394 113.201 165.494 113.228C164.868 113.245 164.243 113.204 163.623 113.115C155.879 111.972 151.211 123.241 150.936 126.648C150.433 132.899 147.131 133.849 142.483 137.765C133.164 145.611 135.892 154.736 140.986 158.126C144.042 160.163 149.43 158.129 149.43 158.129C149.507 158.183 164.168 149.926 171.395 145.942C182.229 144.404 173.721 116.836 169.37 114.239Z" fill="#233862"/>
<path d="M165.34 142.546C165.372 142.567 161.784 143.791 159.386 142.727C157.13 141.728 155.422 138.009 155.456 138.007C156.482 137.958 157.609 137.061 158.479 131.16L158.916 131.317L166.264 133.971C166.264 133.971 165.731 136.333 165.386 138.581C165.095 140.471 164.939 142.28 165.34 142.546Z" fill="#FFB27D"/>
<path d="M166.264 133.971C166.264 133.971 165.971 135.244 165.542 137.625C161.321 136.864 159.51 133.606 158.916 131.317L166.264 133.971Z" fill="#ED975D"/>
<path d="M167.358 136.317C167.358 136.317 157.304 134.96 158.243 128.701C159.182 122.439 158.516 118.049 164.975 118.65C171.435 119.252 172.321 121.827 172.515 123.994C172.708 126.158 169.998 136.506 167.358 136.317Z" fill="#FFB27D"/>
<path d="M172.149 120.56C172.149 120.56 165.711 126.117 161.332 126.561C156.954 127.008 155.297 125.6 155.297 125.6C155.297 125.6 157.878 123.455 159.432 119.991C159.891 118.97 160.858 118.269 161.971 118.174C165.097 117.906 171.024 117.784 172.149 120.56Z" fill="#233862"/>
<path d="M168.126 120.061C168.126 120.061 170.278 122.149 170.956 123.696C171.61 125.188 171.805 128.76 171.283 130.177C171.283 130.177 174.641 123.644 172.742 120.468C170.729 117.099 168.126 120.061 168.126 120.061Z" fill="#233862"/>
<path d="M173.802 157.39C173.491 177.781 173.713 173.518 171.486 175.454C170.949 175.92 169.441 176.196 167.456 176.326C161.215 176.741 150.244 175.706 149.827 174.55C148.389 170.552 149.406 169.309 148.207 163.188C148.082 162.536 147.927 161.831 147.745 161.065C146.746 156.859 145.771 155.429 149.326 148.677C152.55 142.559 155.899 137.595 156.2 137.774C164.699 142.833 165.385 138.583 165.385 138.583C165.385 138.583 173.954 147.442 173.802 157.39Z" fill="#F99746"/>
<path d="M195.569 209.977L189.029 227.591C189.029 227.591 187.256 227.762 185.558 227.272C183.993 226.82 182.201 225.633 182.201 225.633C182.201 225.633 184.02 206.719 187.41 195.861L195.569 209.977Z" fill="#2A4E96"/>
<path d="M165.386 138.581C165.386 138.581 174.132 140.07 175.158 143.843C176.183 147.618 179.557 170.517 179.557 170.517C179.557 170.517 177.089 172.93 175.036 170.872C172.983 168.813 168.579 149.444 168.579 149.444L165.386 138.581Z" fill="#F99746"/>
<path d="M167.456 176.326C161.215 176.741 150.244 175.706 149.827 174.55C148.389 170.552 149.406 169.309 148.207 163.188L151.22 154.695C151.22 154.695 150.719 164.152 153.502 166.641C156.282 169.13 164.897 171.446 166.25 173.526C166.902 174.522 167.331 175.525 167.456 176.326Z" fill="#ED7D2B"/>
<path d="M160.307 172.348C160.307 172.348 166.464 170.975 167.457 171.524C168.451 172.071 170.878 174.065 171.182 174.758C171.486 175.454 168.97 174.233 168.152 174.011C167.622 173.87 166.227 174.355 165.536 174.585C162.63 175.554 160.85 175.053 160.85 175.053L160.307 172.348Z" fill="#FFB27D"/>
<path d="M156.195 137.768C156.195 137.768 147.927 138.277 145.064 142.275C141.033 147.903 133.033 171.893 137.612 175.094C142.769 178.699 161.088 176.044 161.088 176.044C161.088 176.044 161.698 173.19 160.851 171.809C160.003 170.427 146.221 168.193 145.585 167.554C144.949 166.917 153.541 155.131 153.542 153.219C153.542 151.307 156.195 137.768 156.195 137.768Z" fill="#F99746"/>
<path d="M167.755 173.241C167.755 173.241 169.045 174.907 169.467 175.107C169.89 175.305 170.164 175.256 170.164 175.256L169.295 173.688L167.755 173.241Z" fill="#FFB27D"/>
<path d="M167.458 171.524L171.208 173.35C171.208 173.35 171.048 173.61 170.586 173.591C170.125 173.569 168.96 173.141 168.96 173.141L167.458 171.524Z" fill="#FFB27D"/>
<path d="M199.486 175.825L160.305 175.812L160.305 176.678L199.137 176.692L199.486 175.825Z" fill="#233862"/>
<path d="M169.467 176.681L199.137 176.692L208.071 154.457L178.446 154.446L169.467 176.681Z" fill="#233862"/>
<path d="M191.652 165.569C191.876 164.789 191.425 164.155 190.643 164.155C189.865 164.152 189.051 164.786 188.827 165.569C188.602 166.349 189.054 166.983 189.832 166.985C190.614 166.985 191.427 166.352 191.652 165.569Z" fill="white"/>
<path d="M392.454 260.535C388.458 259.205 385.69 260.882 385.69 260.882C374.182 261.356 373.755 273.175 375.107 277.573C377.004 283.751 370.289 288.62 377.734 291.12C386.374 294.02 393.624 290.581 393.13 292.073C420.452 294.232 401.545 263.558 392.454 260.535Z" fill="#163560"/>
<path d="M380.519 318.016C380.519 318.016 379.424 320.185 377.442 322.677C375.05 325.678 362.504 318.558 363.583 318.016C364.664 317.474 370.971 299.275 372.471 296.989C373.974 294.7 379.089 293.514 379.089 293.514L380.519 318.016Z" fill="#F99746"/>
<path d="M422.863 440.756C422.863 440.756 426.326 443.925 425.65 446.173C424.974 448.423 421.849 449.924 421.428 452.673C421.003 455.421 419.314 456.922 417.794 456.922C416.272 456.922 410.544 456.922 410.544 456.922C410.544 456.922 409.425 454.988 412.128 454.403C414.832 453.821 415.851 450.59 415.683 447.589C415.513 444.591 415.935 440.591 415.935 440.591L421.679 439.258L422.863 440.756Z" fill="#1F447F"/>
<path d="M393.549 442.102C393.549 442.102 394.795 455.516 393.276 456.266L373.817 456.226C373.817 456.226 373.817 453.975 376.942 453.477C380.067 452.976 385.558 451.142 386.488 447.058C387.418 442.977 393.549 442.102 393.549 442.102Z" fill="#1C3154"/>
<path d="M408.517 308.968C408.517 308.968 408.809 313.063 408.517 317.978C408.325 321.236 405.035 325.599 404.57 326.677C403.397 329.386 402.077 329.827 402.077 329.827L391.862 332.335L388.269 333.215L376.94 329.827C376.94 329.827 371.782 315.397 373.853 307.275C375.923 299.153 379.089 293.514 379.089 293.514C379.089 293.514 386.788 291.781 400.369 292.745L408.517 308.968Z" fill="#F99746"/>
<path d="M409.49 318.092C409.298 321.35 405.035 325.599 404.57 326.677C403.397 329.385 402.077 329.827 402.077 329.827L391.862 332.335L390.015 327.037C390.015 327.037 404.943 323.11 402.542 309.268L409.49 318.092Z" fill="#ED7D2B"/>
<path d="M377.662 332.015C377.662 332.015 372.052 349.511 371.69 355.466C371.331 361.422 382.414 440.079 382.86 442.822C383.282 445.412 386.488 447.058 386.488 447.058C386.488 447.058 387.961 447.93 390.067 447.334C392.986 446.508 393.911 445.52 393.911 445.52C393.911 445.52 398.277 389.423 395.573 369.384C392.873 349.346 392.84 332.015 392.84 332.015H377.662Z" fill="#233862"/>
<path d="M401.429 331.495C401.429 331.495 409.987 342.998 410.785 350.773C411.582 358.551 412.036 385.864 413.737 393.445C415.434 401.025 421.679 415.612 421.679 439.258C421.679 439.258 421.03 440.613 419.027 441.333C418.386 441.566 417.527 441.788 416.694 441.98C415.04 442.359 413.345 441.552 412.591 440.03C408.368 431.513 394.919 404.048 394.23 398.347C393.743 394.312 389.497 367.608 380.235 351.938C378.01 348.176 381.6 333.215 381.6 333.215L401.429 331.495Z" fill="#2A4E96"/>
<path d="M376.764 329.315C376.764 329.315 379.016 331.1 383.49 331.192C388.834 331.297 402.077 329.827 402.077 329.827C402.077 329.827 402.664 331.473 402.642 333.212C402.642 333.212 386.469 337.299 377.096 333.808C377.096 333.808 375.888 331.53 376.764 329.315Z" fill="#233862"/>
<path d="M382.208 331.084C381.311 331.084 380.578 331.961 380.578 333.039C380.578 334.117 381.311 334.994 382.208 334.994C383.109 334.994 383.838 334.117 383.838 333.039C383.838 331.961 383.109 331.084 382.208 331.084ZM382.208 335.804C380.865 335.804 379.77 334.564 379.77 333.039C379.77 331.514 380.865 330.274 382.208 330.274C383.555 330.274 384.647 331.514 384.647 333.039C384.647 334.564 383.555 335.804 382.208 335.804Z" fill="white"/>
<path d="M393.892 340.833L369.584 341.061L357.625 312.9L381.933 312.673L393.892 340.833Z" fill="#B5453C"/>
<path d="M390.713 328.107L388.931 325.913C388.931 325.913 387.726 324.836 386.85 324.654C385.977 324.47 384.128 323.403 383.949 323.703C383.771 324.004 385.368 326.149 385.368 326.149L385.45 326.163C383.614 327.544 378.981 326.325 378.41 326.888C377.715 327.571 379.364 329.05 380.248 329.881C381.132 330.71 383.66 332.094 385.631 331.479C387.069 331.029 389.337 330.572 389.337 330.572L390.713 328.107Z" fill="#FFB27D"/>
<path d="M359.452 317.853C359.452 317.853 360.98 316.115 361.953 316.949C362.923 317.783 361.699 321.889 360.771 321.472C359.847 321.055 358.92 318.363 359.452 317.853Z" fill="#FFB27D"/>
<path d="M400.369 292.745C400.369 292.745 407.327 293.514 412.323 302.603C416.259 309.772 422.993 322.986 420.452 326.721C419.335 328.359 408.646 334.19 388.029 330.856C388.029 330.856 388.353 328.248 390.015 327.037C390.015 327.037 407.368 321.458 407.338 320.348C407.281 318.246 404.994 316.432 395.3 306.72C392.665 304.077 400.369 292.745 400.369 292.745Z" fill="#F99746"/>
<path d="M395.014 293.113C395.254 292.791 394.946 291.767 394.562 289.861C394.216 288.133 393.63 285.46 393.643 282.453L393.13 282.54L384.506 283.995C384.506 283.995 384.701 286.305 384.706 288.479L384.709 288.534C384.717 290.424 384.198 293.281 384.836 293.655C388.102 295.572 394.095 294.351 395.014 293.113Z" fill="#FFB27D"/>
<path d="M384.506 283.994C384.506 283.994 384.676 287.253 384.682 289.427C389.51 289.311 392.083 284.617 393.13 282.54L384.506 283.994Z" fill="#E8945B"/>
<path d="M383.984 287.878C383.984 287.878 395.29 286.267 394.179 279.228C393.068 272.189 393.778 267.241 386.515 267.972C379.248 268.706 378.272 271.612 378.072 274.052C377.875 276.492 381.016 288.116 383.984 287.878Z" fill="#FFB27D"/>
<path d="M381.352 268.619C381.352 268.619 385.75 276.384 390.683 276.847C395.614 277.313 397.468 275.712 397.468 275.712C397.468 275.712 393.373 273.4 391.816 268.47C391.816 268.47 383.055 264.319 381.352 268.619Z" fill="#163560"/>
<path d="M382.222 269.169C382.222 269.169 380.07 270.391 379.394 272.213C378.732 273.998 378.291 276.289 378.897 278.919C378.897 278.919 375.677 273.679 377.786 270.087C380.024 266.277 382.222 269.169 382.222 269.169Z" fill="#163560"/>
<path d="M631.313 457.935H4.60018C4.16928 457.935 3.81677 457.58 3.81677 457.149V456.697C3.81677 456.264 4.16928 455.912 4.60018 455.912H631.313C631.745 455.912 632.097 456.264 632.097 456.697V457.149C632.097 457.58 631.745 457.935 631.313 457.935Z" fill="#233862"/>
<path d="M274.686 343.163L265.641 345.307L257.131 316.098L268.739 313.347L274.686 343.163ZM266.544 355.669C266.356 354.897 266.325 354.148 266.453 353.423C266.582 352.7 266.85 352.035 267.26 351.43C267.671 350.825 268.213 350.3 268.889 349.854C269.564 349.41 270.366 349.077 271.296 348.856C272.225 348.636 273.1 348.572 273.92 348.663C274.739 348.753 275.472 348.976 276.117 349.331C276.763 349.686 277.309 350.157 277.76 350.744C278.208 351.331 278.528 352.011 278.718 352.784C278.907 353.557 278.936 354.3 278.805 355.012C278.673 355.725 278.403 356.384 277.993 356.988C277.583 357.594 277.034 358.12 276.346 358.568C275.658 359.016 274.85 359.35 273.921 359.571C272.99 359.791 272.122 359.854 271.315 359.761C270.508 359.667 269.782 359.443 269.137 359.087C268.491 358.733 267.945 358.268 267.499 357.692C267.052 357.116 266.734 356.442 266.544 355.669Z" fill="#F77D48"/>
</g>
<defs>
<clipPath id="clip0">
<rect width="635" height="457.837" fill="white"/>
</clipPath>
</defs>
</svg>
